  0
SECTION
  2
HEADER
  9
$ACADVER
  1
AC1014
  9
$HANDSEED
  5
FFFF
  9
$MEASUREMENT
 70
     1
  0
ENDSEC
  0
SECTION
  2
TABLES
  0
TABLE
  2
VPORT
  5
8
330
0
100
AcDbSymbolTable
 70
     4
  0
VPORT
  5
2E
330
8
100
AcDbSymbolTableRecord
100
AcDbViewportTableRecord
  2
*ACTIVE
 70
     0
 10
0.0
 20
0.0
 11
1.0
 21
1.0
 12
210.0
 22
148.5
 13
0.0
 23
0.0
 14
10.0
 24
10.0
 15
10.0
 25
10.0
 16
0.0
 26
0.0
 36
1.0
 17
0.0
 27
0.0
 37
0.0
 40
341.0
 41
1.24
 42
50.0
 43
0.0
 44
0.0
 50
0.0
 51
0.0
 71
     0
 72
   100
 73
     1
 74
     3
 75
     0
 76
     0
 77
     0
 78
     0
  0
ENDTAB
  0
TABLE
  2
LTYPE
  5
5
330
0
100
AcDbSymbolTable
 70
     1
  0
LTYPE
  5
14
330
5
100
AcDbSymbolTableRecord
100
AcDbLinetypeTableRecord
  2
BYBLOCK
 70
     0
  3

 72
    65
 73
     0
 40
0.0
  0
LTYPE
  5
15
330
5
100
AcDbSymbolTableRecord
100
AcDbLinetypeTableRecord
  2
BYLAYER
 70
     0
  3

 72
    65
 73
     0
 40
0.0
  0
LTYPE
  5
16
330
5
100
AcDbSymbolTableRecord
100
AcDbLinetypeTableRecord
  2
CONTINUOUS
 70
     0
  3
Solid line
 72
    65
 73
     0
 40
0.0
  0
ENDTAB
  0
TABLE
  2
LAYER
  5
2
100
AcDbSymbolTable
 70
6
  0
LAYER
  5
50
100
AcDbSymbolTableRecord
100
AcDbLayerTableRecord
  2
0
 70
0
  6
CONTINUOUS
  0
LAYER
  5
51
100
AcDbSymbolTableRecord
100
AcDbLayerTableRecord
  2
Material
 70
0
  6
CONTINUOUS
  0
LAYER
  5
52
100
AcDbSymbolTableRecord
100
AcDbLayerTableRecord
  2
Cutout
 70
0
  6
CONTINUOUS
  0
LAYER
  5
53
100
AcDbSymbolTableRecord
100
AcDbLayerTableRecord
  2
Holes
 70
0
  6
CONTINUOUS
  0
LAYER
  5
54
100
AcDbSymbolTableRecord
100
AcDbLayerTableRecord
  2
Text
 70
0
  6
CONTINUOUS
  0
LAYER
  5
55
100
AcDbSymbolTableRecord
100
AcDbLayerTableRecord
  2
Screws
 70
0
  6
CONTINUOUS
  0
ENDTAB
  0
TABLE
  2
STYLE
  5
3
330
0
100
AcDbSymbolTable
 70
     1
  0
STYLE
  5
11
330
3
100
AcDbSymbolTableRecord
100
AcDbTextStyleTableRecord
  2
STANDARD
 70
     0
 40
0.0
 41
1.0
 50
0.0
 71
     0
 42
2.5
  3
txt
  4

  0
ENDTAB
  0
TABLE
  2
VIEW
  5
6
330
0
100
AcDbSymbolTable
 70
     0
  0
ENDTAB
  0
TABLE
  2
UCS
  5
7
330
0
100
AcDbSymbolTable
 70
     0
  0
ENDTAB
  0
TABLE
  2
APPID
  5
9
330
0
100
AcDbSymbolTable
 70
     2
  0
APPID
  5
12
330
9
100
AcDbSymbolTableRecord
100
AcDbRegAppTableRecord
  2
ACAD
 70
     0
  0
ENDTAB
  0
TABLE
  2
DIMSTYLE
  5
A
330
0
100
AcDbSymbolTable
 70
     1
  0
DIMSTYLE
105
27
330
A
100
AcDbSymbolTableRecord
100
AcDbDimStyleTableRecord
  2
ISO-25
 70
     0
  3

  4

  5

  6

  7

 40
1.0
 41
2.5
 42
0.625
 43
3.75
 44
1.25
 45
0.0
 46
0.0
 47
0.0
 48
0.0
140
2.5
141
2.5
142
0.0
143
0.03937007874016
144
1.0
145
0.0
146
1.0
147
0.625
 71
     0
 72
     0
 73
     0
 74
     0
 75
     0
 76
     0
 77
     1
 78
     8
170
     0
171
     3
172
     1
173
     0
174
     0
175
     0
176
     0
177
     0
178
     0
270
     2
271
     2
272
     2
273
     2
274
     3
340
11
275
     0
280
     0
281
     0
282
     0
283
     0
284
     8
285
     0
286
     0
287
     3
288
     0
  0
ENDTAB
  0
TABLE
  2
BLOCK_RECORD
  5
1
330
0
100
AcDbSymbolTable
 70
     1
  0
BLOCK_RECORD
  5
1F
330
1
100
AcDbSymbolTableRecord
100
AcDbBlockTableRecord
  2
*MODEL_SPACE
  0
BLOCK_RECORD
  5
1B
330
1
100
AcDbSymbolTableRecord
100
AcDbBlockTableRecord
  2
*PAPER_SPACE
  0
ENDTAB
  0
ENDSEC
  0
SECTION
  2
BLOCKS
  0
BLOCK
  5
20
330
1F
100
AcDbEntity
  8
0
100
AcDbBlockBegin
  2
*MODEL_SPACE
 70
     0
 10
0.0
 20
0.0
 30
0.0
  3
*MODEL_SPACE
  1

  0
ENDBLK
  5
21
330
1F
100
AcDbEntity
  8
0
100
AcDbBlockEnd
  0
BLOCK
  5
1C
330
1B
100
AcDbEntity
 67
     1
  8
0
100
AcDbBlockBegin
  2
*PAPER_SPACE
  1

  0
ENDBLK
  5
1D
330
1B
100
AcDbEntity
 67
     1
  8
0
100
AcDbBlockEnd
  0
ENDSEC
  0
SECTION
  2
ENTITIES
  0
LWPOLYLINE
  5
100
100
AcDbEntity
  8
Material
 62
1
100
AcDbPolyline
 90
4
 70
1
 10
130.393688
 20
266.456787
 30
0.0
 10
249.448804
 20
266.456787
 30
0.0
 10
249.448804
 20
147.401671
 30
0.0
 10
130.393688
 20
147.401671
 30
0.0
  0
LWPOLYLINE
  5
101
100
AcDbEntity
  8
Material
 62
1
100
AcDbPolyline
 90
4
 70
1
 10
255.118100
 20
266.456835
 30
0.0
 10
374.173216
 20
266.456835
 30
0.0
 10
374.173216
 20
147.401719
 30
0.0
 10
255.118100
 20
147.401719
 30
0.0
  0
LWPOLYLINE
  5
102
100
AcDbEntity
  8
Material
 62
1
100
AcDbPolyline
 90
4
 70
1
 10
379.842544
 20
266.456787
 30
0.0
 10
498.897660
 20
266.456787
 30
0.0
 10
498.897660
 20
147.401671
 30
0.0
 10
379.842544
 20
147.401671
 30
0.0
  0
LWPOLYLINE
  5
103
100
AcDbEntity
  8
Material
 62
1
100
AcDbPolyline
 90
4
 70
1
 10
379.842544
 20
141.732319
 30
0.0
 10
498.897660
 20
141.732319
 30
0.0
 10
498.897660
 20
22.677203
 30
0.0
 10
379.842544
 20
22.677203
 30
0.0
  0
LWPOLYLINE
  5
104
100
AcDbEntity
  8
Material
 62
1
100
AcDbPolyline
 90
4
 70
1
 10
5.669296
 20
266.456739
 30
0.0
 10
124.724412
 20
266.456739
 30
0.0
 10
124.724412
 20
147.401623
 30
0.0
 10
5.669296
 20
147.401623
 30
0.0
  0
LWPOLYLINE
  5
105
100
AcDbEntity
  8
Material
 62
1
100
AcDbPolyline
 90
4
 70
1
 10
130.393712
 20
141.732319
 30
0.0
 10
249.448828
 20
141.732319
 30
0.0
 10
249.448828
 20
22.677203
 30
0.0
 10
130.393712
 20
22.677203
 30
0.0
  0
LWPOLYLINE
  5
106
100
AcDbEntity
  8
Material
 62
1
100
AcDbPolyline
 90
4
 70
1
 10
5.669296
 20
141.732303
 30
0.0
 10
124.724412
 20
141.732303
 30
0.0
 10
124.724412
 20
22.677187
 30
0.0
 10
5.669296
 20
22.677187
 30
0.0
  0
SPLINE
  5
107
100
AcDbEntity
  8
Material
 62
1
100
AcDbSpline
 70
8
 71
3
 72
8
 73
4
 74
0
 40
0
 40
0
 40
0
 40
0
 40
1
 40
1
 40
1
 40
1
 10
272.125998
 20
35.433275
 30
0.0
 10
272.125998
 20
33.914195
 30
0.0
 10
271.315578
 20
32.510506
 30
0.0
 10
270.000015
 20
31.750966
 30
0.0
  0
SPLINE
  5
108
100
AcDbEntity
  8
Material
 62
1
100
AcDbSpline
 70
8
 71
3
 72
8
 73
4
 74
0
 40
0
 40
0
 40
0
 40
0
 40
1
 40
1
 40
1
 40
1
 10
270.000015
 20
31.750966
 30
0.0
 10
268.684453
 20
30.991426
 30
0.0
 10
267.063613
 20
30.991426
 30
0.0
 10
265.748051
 20
31.750966
 30
0.0
  0
SPLINE
  5
109
100
AcDbEntity
  8
Material
 62
1
100
AcDbSpline
 70
8
 71
3
 72
8
 73
4
 74
0
 40
0
 40
0
 40
0
 40
0
 40
1
 40
1
 40
1
 40
1
 10
265.748051
 20
31.750966
 30
0.0
 10
264.432488
 20
32.510506
 30
0.0
 10
263.622068
 20
33.914195
 30
0.0
 10
263.622068
 20
35.433275
 30
0.0
  0
SPLINE
  5
10a
100
AcDbEntity
  8
Material
 62
1
100
AcDbSpline
 70
8
 71
3
 72
8
 73
4
 74
0
 40
0
 40
0
 40
0
 40
0
 40
1
 40
1
 40
1
 40
1
 10
263.622068
 20
35.433275
 30
0.0
 10
263.622068
 20
36.952356
 30
0.0
 10
264.432488
 20
38.356045
 30
0.0
 10
265.748051
 20
39.115585
 30
0.0
  0
SPLINE
  5
10b
100
AcDbEntity
  8
Material
 62
1
100
AcDbSpline
 70
8
 71
3
 72
8
 73
4
 74
0
 40
0
 40
0
 40
0
 40
0
 40
1
 40
1
 40
1
 40
1
 10
265.748051
 20
39.115585
 30
0.0
 10
267.063613
 20
39.875125
 30
0.0
 10
268.684453
 20
39.875125
 30
0.0
 10
270.000015
 20
39.115585
 30
0.0
  0
SPLINE
  5
10c
100
AcDbEntity
  8
Material
 62
1
100
AcDbSpline
 70
8
 71
3
 72
8
 73
4
 74
0
 40
0
 40
0
 40
0
 40
0
 40
1
 40
1
 40
1
 40
1
 10
270.000015
 20
39.115585
 30
0.0
 10
271.315578
 20
38.356045
 30
0.0
 10
272.125998
 20
36.952356
 30
0.0
 10
272.125998
 20
35.433275
 30
0.0
  0
LWPOLYLINE
  5
10d
100
AcDbEntity
  8
Material
 62
1
100
AcDbPolyline
 90
4
 70
1
 10
255.118120
 20
141.732303
 30
0.0
 10
374.173237
 20
141.732303
 30
0.0
 10
374.173237
 20
22.677187
 30
0.0
 10
255.118120
 20
22.677187
 30
0.0
  0
SPLINE
  5
10e
100
AcDbEntity
  8
Material
 62
1
100
AcDbSpline
 70
8
 71
3
 72
8
 73
4
 74
0
 40
0
 40
0
 40
0
 40
0
 40
1
 40
1
 40
1
 40
1
 10
365.669313
 20
35.433179
 30
0.0
 10
365.669313
 20
33.914099
 30
0.0
 10
364.858893
 20
32.510410
 30
0.0
 10
363.543330
 20
31.750870
 30
0.0
  0
SPLINE
  5
10f
100
AcDbEntity
  8
Material
 62
1
100
AcDbSpline
 70
8
 71
3
 72
8
 73
4
 74
0
 40
0
 40
0
 40
0
 40
0
 40
1
 40
1
 40
1
 40
1
 10
363.543330
 20
31.750870
 30
0.0
 10
362.227768
 20
30.991330
 30
0.0
 10
360.606928
 20
30.991330
 30
0.0
 10
359.291366
 20
31.750870
 30
0.0
  0
SPLINE
  5
110
100
AcDbEntity
  8
Material
 62
1
100
AcDbSpline
 70
8
 71
3
 72
8
 73
4
 74
0
 40
0
 40
0
 40
0
 40
0
 40
1
 40
1
 40
1
 40
1
 10
359.291366
 20
31.750870
 30
0.0
 10
357.975803
 20
32.510410
 30
0.0
 10
357.165383
 20
33.914099
 30
0.0
 10
357.165383
 20
35.433179
 30
0.0
  0
SPLINE
  5
111
100
AcDbEntity
  8
Material
 62
1
100
AcDbSpline
 70
8
 71
3
 72
8
 73
4
 74
0
 40
0
 40
0
 40
0
 40
0
 40
1
 40
1
 40
1
 40
1
 10
357.165383
 20
35.433179
 30
0.0
 10
357.165383
 20
36.952260
 30
0.0
 10
357.975803
 20
38.355949
 30
0.0
 10
359.291366
 20
39.115489
 30
0.0
  0
SPLINE
  5
112
100
AcDbEntity
  8
Material
 62
1
100
AcDbSpline
 70
8
 71
3
 72
8
 73
4
 74
0
 40
0
 40
0
 40
0
 40
0
 40
1
 40
1
 40
1
 40
1
 10
359.291366
 20
39.115489
 30
0.0
 10
360.606928
 20
39.875029
 30
0.0
 10
362.227768
 20
39.875029
 30
0.0
 10
363.543330
 20
39.115489
 30
0.0
  0
SPLINE
  5
113
100
AcDbEntity
  8
Material
 62
1
100
AcDbSpline
 70
8
 71
3
 72
8
 73
4
 74
0
 40
0
 40
0
 40
0
 40
0
 40
1
 40
1
 40
1
 40
1
 10
363.543330
 20
39.115489
 30
0.0
 10
364.858893
 20
38.355949
 30
0.0
 10
365.669313
 20
36.952260
 30
0.0
 10
365.669313
 20
35.433179
 30
0.0
  0
LWPOLYLINE
  5
114
100
AcDbEntity
  8
Material
 62
1
100
AcDbPolyline
 90
1
 70
1
 10
272.125998
 20
35.433275
 30
0.0
  0
SPLINE
  5
115
100
AcDbEntity
  8
Material
 62
1
100
AcDbSpline
 70
8
 71
3
 72
8
 73
4
 74
0
 40
0
 40
0
 40
0
 40
0
 40
1
 40
1
 40
1
 40
1
 10
272.125998
 20
128.976399
 30
0.0
 10
272.125998
 20
127.457318
 30
0.0
 10
271.315578
 20
126.053629
 30
0.0
 10
270.000015
 20
125.294089
 30
0.0
  0
SPLINE
  5
116
100
AcDbEntity
  8
Material
 62
1
100
AcDbSpline
 70
8
 71
3
 72
8
 73
4
 74
0
 40
0
 40
0
 40
0
 40
0
 40
1
 40
1
 40
1
 40
1
 10
270.000015
 20
125.294089
 30
0.0
 10
268.684453
 20
124.534549
 30
0.0
 10
267.063613
 20
124.534549
 30
0.0
 10
265.748051
 20
125.294089
 30
0.0
  0
SPLINE
  5
117
100
AcDbEntity
  8
Material
 62
1
100
AcDbSpline
 70
8
 71
3
 72
8
 73
4
 74
0
 40
0
 40
0
 40
0
 40
0
 40
1
 40
1
 40
1
 40
1
 10
265.748051
 20
125.294089
 30
0.0
 10
264.432488
 20
126.053629
 30
0.0
 10
263.622068
 20
127.457318
 30
0.0
 10
263.622068
 20
128.976399
 30
0.0
  0
SPLINE
  5
118
100
AcDbEntity
  8
Material
 62
1
100
AcDbSpline
 70
8
 71
3
 72
8
 73
4
 74
0
 40
0
 40
0
 40
0
 40
0
 40
1
 40
1
 40
1
 40
1
 10
263.622068
 20
128.976399
 30
0.0
 10
263.622068
 20
130.495479
 30
0.0
 10
264.432488
 20
131.899168
 30
0.0
 10
265.748051
 20
132.658708
 30
0.0
  0
SPLINE
  5
119
100
AcDbEntity
  8
Material
 62
1
100
AcDbSpline
 70
8
 71
3
 72
8
 73
4
 74
0
 40
0
 40
0
 40
0
 40
0
 40
1
 40
1
 40
1
 40
1
 10
265.748051
 20
132.658708
 30
0.0
 10
267.063613
 20
133.418248
 30
0.0
 10
268.684453
 20
133.418248
 30
0.0
 10
270.000015
 20
132.658708
 30
0.0
  0
SPLINE
  5
11a
100
AcDbEntity
  8
Material
 62
1
100
AcDbSpline
 70
8
 71
3
 72
8
 73
4
 74
0
 40
0
 40
0
 40
0
 40
0
 40
1
 40
1
 40
1
 40
1
 10
270.000015
 20
132.658708
 30
0.0
 10
271.315578
 20
131.899168
 30
0.0
 10
272.125998
 20
130.495479
 30
0.0
 10
272.125998
 20
128.976399
 30
0.0
  0
LWPOLYLINE
  5
11b
100
AcDbEntity
  8
Material
 62
1
100
AcDbPolyline
 90
1
 70
1
 10
365.669313
 20
35.433179
 30
0.0
  0
SPLINE
  5
11c
100
AcDbEntity
  8
Material
 62
1
100
AcDbSpline
 70
8
 71
3
 72
8
 73
4
 74
0
 40
0
 40
0
 40
0
 40
0
 40
1
 40
1
 40
1
 40
1
 10
365.669313
 20
128.976399
 30
0.0
 10
365.669313
 20
127.457318
 30
0.0
 10
364.858893
 20
126.053629
 30
0.0
 10
363.543330
 20
125.294089
 30
0.0
  0
SPLINE
  5
11d
100
AcDbEntity
  8
Material
 62
1
100
AcDbSpline
 70
8
 71
3
 72
8
 73
4
 74
0
 40
0
 40
0
 40
0
 40
0
 40
1
 40
1
 40
1
 40
1
 10
363.543330
 20
125.294089
 30
0.0
 10
362.227768
 20
124.534549
 30
0.0
 10
360.606928
 20
124.534549
 30
0.0
 10
359.291366
 20
125.294089
 30
0.0
  0
SPLINE
  5
11e
100
AcDbEntity
  8
Material
 62
1
100
AcDbSpline
 70
8
 71
3
 72
8
 73
4
 74
0
 40
0
 40
0
 40
0
 40
0
 40
1
 40
1
 40
1
 40
1
 10
359.291366
 20
125.294089
 30
0.0
 10
357.975803
 20
126.053629
 30
0.0
 10
357.165383
 20
127.457318
 30
0.0
 10
357.165383
 20
128.976399
 30
0.0
  0
SPLINE
  5
11f
100
AcDbEntity
  8
Material
 62
1
100
AcDbSpline
 70
8
 71
3
 72
8
 73
4
 74
0
 40
0
 40
0
 40
0
 40
0
 40
1
 40
1
 40
1
 40
1
 10
357.165383
 20
128.976399
 30
0.0
 10
357.165383
 20
130.495479
 30
0.0
 10
357.975803
 20
131.899168
 30
0.0
 10
359.291366
 20
132.658708
 30
0.0
  0
SPLINE
  5
120
100
AcDbEntity
  8
Material
 62
1
100
AcDbSpline
 70
8
 71
3
 72
8
 73
4
 74
0
 40
0
 40
0
 40
0
 40
0
 40
1
 40
1
 40
1
 40
1
 10
359.291366
 20
132.658708
 30
0.0
 10
360.606928
 20
133.418248
 30
0.0
 10
362.227768
 20
133.418248
 30
0.0
 10
363.543330
 20
132.658708
 30
0.0
  0
SPLINE
  5
121
100
AcDbEntity
  8
Material
 62
1
100
AcDbSpline
 70
8
 71
3
 72
8
 73
4
 74
0
 40
0
 40
0
 40
0
 40
0
 40
1
 40
1
 40
1
 40
1
 10
363.543330
 20
132.658708
 30
0.0
 10
364.858893
 20
131.899168
 30
0.0
 10
365.669313
 20
130.495479
 30
0.0
 10
365.669313
 20
128.976399
 30
0.0
  0
LWPOLYLINE
  5
122
100
AcDbEntity
  8
Material
 62
1
100
AcDbPolyline
 90
1
 70
1
 10
272.125998
 20
128.976399
 30
0.0
  0
SPLINE
  5
123
100
AcDbEntity
  8
Cutout
 62
7
100
AcDbSpline
 70
8
 71
3
 72
8
 73
4
 74
0
 40
0
 40
0
 40
0
 40
0
 40
1
 40
1
 40
1
 40
1
 10
90.708668
 20
82.204734
 30
0.0
 10
90.708668
 20
73.090242
 30
0.0
 10
85.846144
 20
64.668104
 30
0.0
 10
77.952762
 20
60.110857
 30
0.0
  0
SPLINE
  5
124
100
AcDbEntity
  8
Cutout
 62
7
100
AcDbSpline
 70
8
 71
3
 72
8
 73
4
 74
0
 40
0
 40
0
 40
0
 40
0
 40
1
 40
1
 40
1
 40
1
 10
77.952762
 20
60.110857
 30
0.0
 10
70.059380
 20
55.553611
 30
0.0
 10
60.334333
 20
55.553611
 30
0.0
 10
52.440951
 20
60.110857
 30
0.0
  0
SPLINE
  5
125
100
AcDbEntity
  8
Cutout
 62
7
100
AcDbSpline
 70
8
 71
3
 72
8
 73
4
 74
0
 40
0
 40
0
 40
0
 40
0
 40
1
 40
1
 40
1
 40
1
 10
52.440951
 20
60.110857
 30
0.0
 10
44.547569
 20
64.668104
 30
0.0
 10
39.685045
 20
73.090242
 30
0.0
 10
39.685045
 20
82.204734
 30
0.0
  0
SPLINE
  5
126
100
AcDbEntity
  8
Cutout
 62
7
100
AcDbSpline
 70
8
 71
3
 72
8
 73
4
 74
0
 40
0
 40
0
 40
0
 40
0
 40
1
 40
1
 40
1
 40
1
 10
39.685045
 20
82.204734
 30
0.0
 10
39.685045
 20
91.319226
 30
0.0
 10
44.547569
 20
99.741365
 30
0.0
 10
52.440951
 20
104.298611
 30
0.0
  0
SPLINE
  5
127
100
AcDbEntity
  8
Cutout
 62
7
100
AcDbSpline
 70
8
 71
3
 72
8
 73
4
 74
0
 40
0
 40
0
 40
0
 40
0
 40
1
 40
1
 40
1
 40
1
 10
52.440951
 20
104.298611
 30
0.0
 10
60.334333
 20
108.855857
 30
0.0
 10
70.059380
 20
108.855857
 30
0.0
 10
77.952762
 20
104.298611
 30
0.0
  0
SPLINE
  5
128
100
AcDbEntity
  8
Cutout
 62
7
100
AcDbSpline
 70
8
 71
3
 72
8
 73
4
 74
0
 40
0
 40
0
 40
0
 40
0
 40
1
 40
1
 40
1
 40
1
 10
77.952762
 20
104.298611
 30
0.0
 10
85.846144
 20
99.741365
 30
0.0
 10
90.708668
 20
91.319226
 30
0.0
 10
90.708668
 20
82.204734
 30
0.0
  0
LWPOLYLINE
  5
129
100
AcDbEntity
  8
Material
 62
1
100
AcDbPolyline
 90
1
 70
1
 10
365.669313
 20
128.976399
 30
0.0
  0
LWPOLYLINE
  5
12a
100
AcDbEntity
  8
Cutout
 62
7
100
AcDbPolyline
 90
1
 70
1
 10
90.708668
 20
82.204734
 30
0.0
  0
LWPOLYLINE
  5
12b
100
AcDbEntity
  8
Cutout
 62
1
100
AcDbPolyline
 90
4
 70
1
 10
141.448800
 20
243.212652
 30
0.0
 10
238.677139
 20
243.212652
 30
0.0
 10
238.677139
 20
170.645730
 30
0.0
 10
141.448800
 20
170.645730
 30
0.0
  0
LWPOLYLINE
  5
12c
100
AcDbEntity
  8
Cutout
 62
1
100
AcDbPolyline
 90
4
 70
1
 10
130.393688
 20
223.937059
 30
0.0
 10
141.448798
 20
223.937059
 30
0.0
 10
141.448798
 20
189.921317
 30
0.0
 10
130.393688
 20
189.921317
 30
0.0
  0
LWPOLYLINE
  5
12d
100
AcDbEntity
  8
Cutout
 62
1
100
AcDbPolyline
 90
4
 70
1
 10
266.173204
 20
243.212700
 30
0.0
 10
363.401544
 20
243.212700
 30
0.0
 10
363.401544
 20
170.645778
 30
0.0
 10
266.173204
 20
170.645778
 30
0.0
  0
LWPOLYLINE
  5
12e
100
AcDbEntity
  8
Cutout
 62
1
100
AcDbPolyline
 90
4
 70
1
 10
255.118100
 20
223.937107
 30
0.0
 10
266.173210
 20
223.937107
 30
0.0
 10
266.173210
 20
189.921365
 30
0.0
 10
255.118100
 20
189.921365
 30
0.0
  0
LWPOLYLINE
  5
12f
100
AcDbEntity
  8
Cutout
 62
1
100
AcDbPolyline
 90
4
 70
1
 10
379.842544
 20
223.937059
 30
0.0
 10
390.897654
 20
223.937059
 30
0.0
 10
390.897654
 20
189.921317
 30
0.0
 10
379.842544
 20
189.921317
 30
0.0
  0
LWPOLYLINE
  5
130
100
AcDbEntity
  8
Cutout
 62
1
100
AcDbPolyline
 90
4
 70
1
 10
411.023649
 20
118.488183
 30
0.0
 10
470.267737
 20
118.488183
 30
0.0
 10
470.267737
 20
110.834648
 30
0.0
 10
411.023649
 20
110.834648
 30
0.0
  0
LWPOLYLINE
  5
131
100
AcDbEntity
  8
Cutout
 62
1
100
AcDbPolyline
 90
4
 70
1
 10
411.023649
 20
53.574845
 30
0.0
 10
470.267737
 20
53.574845
 30
0.0
 10
470.267737
 20
45.921309
 30
0.0
 10
411.023649
 20
45.921309
 30
0.0
  0
LWPOLYLINE
  5
132
100
AcDbEntity
  8
Cutout
 62
1
100
AcDbPolyline
 90
4
 70
1
 10
143.149616
 20
119.338623
 30
0.0
 10
223.086618
 20
119.338623
 30
0.0
 10
223.086618
 20
45.070914
 30
0.0
 10
143.149616
 20
45.070914
 30
0.0
  0
LWPOLYLINE
  5
133
100
AcDbEntity
  8
Cutout
 62
1
100
AcDbPolyline
 90
4
 70
1
 10
286.299229
 20
118.488183
 30
0.0
 10
345.543316
 20
118.488183
 30
0.0
 10
345.543316
 20
110.834648
 30
0.0
 10
286.299229
 20
110.834648
 30
0.0
  0
LWPOLYLINE
  5
134
100
AcDbEntity
  8
Cutout
 62
1
100
AcDbPolyline
 90
4
 70
1
 10
286.299229
 20
53.574797
 30
0.0
 10
345.543316
 20
53.574797
 30
0.0
 10
345.543316
 20
45.921261
 30
0.0
 10
286.299229
 20
45.921261
 30
0.0
  0
LWPOLYLINE
  5
135
100
AcDbEntity
  8
Cutout
 62
1
100
AcDbPolyline
 90
4
 70
1
 10
36.850399
 20
243.212596
 30
0.0
 10
96.094486
 20
243.212596
 30
0.0
 10
96.094486
 20
235.559060
 30
0.0
 10
36.850399
 20
235.559060
 30
0.0
  0
LWPOLYLINE
  5
136
100
AcDbEntity
  8
Cutout
 62
1
100
AcDbPolyline
 90
4
 70
1
 10
36.850399
 20
178.299217
 30
0.0
 10
96.094486
 20
178.299217
 30
0.0
 10
96.094486
 20
170.645682
 30
0.0
 10
36.850399
 20
170.645682
 30
0.0
  0
LWPOLYLINE
  5
137
100
AcDbEntity
  8
Cutout
 62
7
100
AcDbPolyline
 90
4
 70
1
 10
238.677187
 20
195.590578
 30
0.0
 10
249.448841
 20
195.590578
 30
0.0
 10
249.448841
 20
187.086641
 30
0.0
 10
238.677187
 20
187.086641
 30
0.0
  0
LWPOLYLINE
  5
138
100
AcDbEntity
  8
Cutout
 62
1
100
AcDbPolyline
 90
4
 70
1
 10
43.937014
 20
227.905515
 30
0.0
 10
91.559056
 20
227.905515
 30
0.0
 10
91.559056
 20
185.952767
 30
0.0
 10
43.937014
 20
185.952767
 30
0.0
  0
SPLINE
  5
139
100
AcDbEntity
  8
Holes
 62
1
100
AcDbSpline
 70
8
 71
3
 72
8
 73
4
 74
0
 40
0
 40
0
 40
0
 40
0
 40
1
 40
1
 40
1
 40
1
 10
147.401545
 20
160.157621
 30
0.0
 10
147.401545
 20
158.638540
 30
0.0
 10
146.591125
 20
157.234852
 30
0.0
 10
145.275563
 20
156.475311
 30
0.0
  0
SPLINE
  5
13a
100
AcDbEntity
  8
Holes
 62
1
100
AcDbSpline
 70
8
 71
3
 72
8
 73
4
 74
0
 40
0
 40
0
 40
0
 40
0
 40
1
 40
1
 40
1
 40
1
 10
145.275563
 20
156.475311
 30
0.0
 10
143.960001
 20
155.715771
 30
0.0
 10
142.339161
 20
155.715771
 30
0.0
 10
141.023598
 20
156.475311
 30
0.0
  0
SPLINE
  5
13b
100
AcDbEntity
  8
Holes
 62
1
100
AcDbSpline
 70
8
 71
3
 72
8
 73
4
 74
0
 40
0
 40
0
 40
0
 40
0
 40
1
 40
1
 40
1
 40
1
 10
141.023598
 20
156.475311
 30
0.0
 10
139.708036
 20
157.234852
 30
0.0
 10
138.897616
 20
158.638540
 30
0.0
 10
138.897616
 20
160.157621
 30
0.0
  0
SPLINE
  5
13c
100
AcDbEntity
  8
Holes
 62
1
100
AcDbSpline
 70
8
 71
3
 72
8
 73
4
 74
0
 40
0
 40
0
 40
0
 40
0
 40
1
 40
1
 40
1
 40
1
 10
138.897616
 20
160.157621
 30
0.0
 10
138.897616
 20
161.676701
 30
0.0
 10
139.708036
 20
163.080390
 30
0.0
 10
141.023598
 20
163.839930
 30
0.0
  0
SPLINE
  5
13d
100
AcDbEntity
  8
Holes
 62
1
100
AcDbSpline
 70
8
 71
3
 72
8
 73
4
 74
0
 40
0
 40
0
 40
0
 40
0
 40
1
 40
1
 40
1
 40
1
 10
141.023598
 20
163.839930
 30
0.0
 10
142.339161
 20
164.599471
 30
0.0
 10
143.960001
 20
164.599471
 30
0.0
 10
145.275563
 20
163.839930
 30
0.0
  0
SPLINE
  5
13e
100
AcDbEntity
  8
Holes
 62
1
100
AcDbSpline
 70
8
 71
3
 72
8
 73
4
 74
0
 40
0
 40
0
 40
0
 40
0
 40
1
 40
1
 40
1
 40
1
 10
145.275563
 20
163.839930
 30
0.0
 10
146.591125
 20
163.080390
 30
0.0
 10
147.401545
 20
161.676701
 30
0.0
 10
147.401545
 20
160.157621
 30
0.0
  0
LWPOLYLINE
  5
13f
100
AcDbEntity
  8
Cutout
 62
1
100
AcDbPolyline
 90
4
 70
1
 10
5.669296
 20
223.936963
 30
0.0
 10
16.724406
 20
223.936963
 30
0.0
 10
16.724406
 20
189.921221
 30
0.0
 10
5.669296
 20
189.921221
 30
0.0
  0
SPLINE
  5
140
100
AcDbEntity
  8
Holes
 62
1
100
AcDbSpline
 70
8
 71
3
 72
8
 73
4
 74
0
 40
0
 40
0
 40
0
 40
0
 40
1
 40
1
 40
1
 40
1
 10
240.944869
 20
160.157523
 30
0.0
 10
240.944869
 20
158.638442
 30
0.0
 10
240.134449
 20
157.234754
 30
0.0
 10
238.818886
 20
156.475214
 30
0.0
  0
SPLINE
  5
141
100
AcDbEntity
  8
Holes
 62
1
100
AcDbSpline
 70
8
 71
3
 72
8
 73
4
 74
0
 40
0
 40
0
 40
0
 40
0
 40
1
 40
1
 40
1
 40
1
 10
238.818886
 20
156.475214
 30
0.0
 10
237.503324
 20
155.715673
 30
0.0
 10
235.882484
 20
155.715673
 30
0.0
 10
234.566921
 20
156.475214
 30
0.0
  0
SPLINE
  5
142
100
AcDbEntity
  8
Holes
 62
1
100
AcDbSpline
 70
8
 71
3
 72
8
 73
4
 74
0
 40
0
 40
0
 40
0
 40
0
 40
1
 40
1
 40
1
 40
1
 10
234.566921
 20
156.475214
 30
0.0
 10
233.251359
 20
157.234754
 30
0.0
 10
232.440939
 20
158.638442
 30
0.0
 10
232.440939
 20
160.157523
 30
0.0
  0
SPLINE
  5
143
100
AcDbEntity
  8
Holes
 62
1
100
AcDbSpline
 70
8
 71
3
 72
8
 73
4
 74
0
 40
0
 40
0
 40
0
 40
0
 40
1
 40
1
 40
1
 40
1
 10
232.440939
 20
160.157523
 30
0.0
 10
232.440939
 20
161.676604
 30
0.0
 10
233.251359
 20
163.080292
 30
0.0
 10
234.566921
 20
163.839833
 30
0.0
  0
SPLINE
  5
144
100
AcDbEntity
  8
Holes
 62
1
100
AcDbSpline
 70
8
 71
3
 72
8
 73
4
 74
0
 40
0
 40
0
 40
0
 40
0
 40
1
 40
1
 40
1
 40
1
 10
234.566921
 20
163.839833
 30
0.0
 10
235.882484
 20
164.599373
 30
0.0
 10
237.503324
 20
164.599373
 30
0.0
 10
238.818886
 20
163.839833
 30
0.0
  0
SPLINE
  5
145
100
AcDbEntity
  8
Holes
 62
1
100
AcDbSpline
 70
8
 71
3
 72
8
 73
4
 74
0
 40
0
 40
0
 40
0
 40
0
 40
1
 40
1
 40
1
 40
1
 10
238.818886
 20
163.839833
 30
0.0
 10
240.134449
 20
163.080292
 30
0.0
 10
240.944869
 20
161.676604
 30
0.0
 10
240.944869
 20
160.157523
 30
0.0
  0
LWPOLYLINE
  5
146
100
AcDbEntity
  8
Holes
 62
1
100
AcDbPolyline
 90
1
 70
1
 10
147.401545
 20
160.157621
 30
0.0
  0
SPLINE
  5
147
100
AcDbEntity
  8
Holes
 62
1
100
AcDbSpline
 70
8
 71
3
 72
8
 73
4
 74
0
 40
0
 40
0
 40
0
 40
0
 40
1
 40
1
 40
1
 40
1
 10
147.401545
 20
253.700892
 30
0.0
 10
147.401545
 20
252.181811
 30
0.0
 10
146.591125
 20
250.778123
 30
0.0
 10
145.275563
 20
250.018582
 30
0.0
  0
SPLINE
  5
148
100
AcDbEntity
  8
Holes
 62
1
100
AcDbSpline
 70
8
 71
3
 72
8
 73
4
 74
0
 40
0
 40
0
 40
0
 40
0
 40
1
 40
1
 40
1
 40
1
 10
145.275563
 20
250.018582
 30
0.0
 10
143.960001
 20
249.259042
 30
0.0
 10
142.339161
 20
249.259042
 30
0.0
 10
141.023598
 20
250.018582
 30
0.0
  0
SPLINE
  5
149
100
AcDbEntity
  8
Holes
 62
1
100
AcDbSpline
 70
8
 71
3
 72
8
 73
4
 74
0
 40
0
 40
0
 40
0
 40
0
 40
1
 40
1
 40
1
 40
1
 10
141.023598
 20
250.018582
 30
0.0
 10
139.708036
 20
250.778123
 30
0.0
 10
138.897616
 20
252.181811
 30
0.0
 10
138.897616
 20
253.700892
 30
0.0
  0
SPLINE
  5
14a
100
AcDbEntity
  8
Holes
 62
1
100
AcDbSpline
 70
8
 71
3
 72
8
 73
4
 74
0
 40
0
 40
0
 40
0
 40
0
 40
1
 40
1
 40
1
 40
1
 10
138.897616
 20
253.700892
 30
0.0
 10
138.897616
 20
255.219973
 30
0.0
 10
139.708036
 20
256.623661
 30
0.0
 10
141.023598
 20
257.383201
 30
0.0
  0
SPLINE
  5
14b
100
AcDbEntity
  8
Holes
 62
1
100
AcDbSpline
 70
8
 71
3
 72
8
 73
4
 74
0
 40
0
 40
0
 40
0
 40
0
 40
1
 40
1
 40
1
 40
1
 10
141.023598
 20
257.383201
 30
0.0
 10
142.339161
 20
258.142742
 30
0.0
 10
143.960001
 20
258.142742
 30
0.0
 10
145.275563
 20
257.383201
 30
0.0
  0
SPLINE
  5
14c
100
AcDbEntity
  8
Holes
 62
1
100
AcDbSpline
 70
8
 71
3
 72
8
 73
4
 74
0
 40
0
 40
0
 40
0
 40
0
 40
1
 40
1
 40
1
 40
1
 10
145.275563
 20
257.383201
 30
0.0
 10
146.591125
 20
256.623661
 30
0.0
 10
147.401545
 20
255.219973
 30
0.0
 10
147.401545
 20
253.700892
 30
0.0
  0
LWPOLYLINE
  5
14d
100
AcDbEntity
  8
Holes
 62
1
100
AcDbPolyline
 90
1
 70
1
 10
240.944869
 20
160.157523
 30
0.0
  0
SPLINE
  5
14e
100
AcDbEntity
  8
Holes
 62
1
100
AcDbSpline
 70
8
 71
3
 72
8
 73
4
 74
0
 40
0
 40
0
 40
0
 40
0
 40
1
 40
1
 40
1
 40
1
 10
240.944869
 20
253.700892
 30
0.0
 10
240.944869
 20
252.181811
 30
0.0
 10
240.134449
 20
250.778123
 30
0.0
 10
238.818886
 20
250.018582
 30
0.0
  0
SPLINE
  5
14f
100
AcDbEntity
  8
Holes
 62
1
100
AcDbSpline
 70
8
 71
3
 72
8
 73
4
 74
0
 40
0
 40
0
 40
0
 40
0
 40
1
 40
1
 40
1
 40
1
 10
238.818886
 20
250.018582
 30
0.0
 10
237.503324
 20
249.259042
 30
0.0
 10
235.882484
 20
249.259042
 30
0.0
 10
234.566921
 20
250.018582
 30
0.0
  0
SPLINE
  5
150
100
AcDbEntity
  8
Holes
 62
1
100
AcDbSpline
 70
8
 71
3
 72
8
 73
4
 74
0
 40
0
 40
0
 40
0
 40
0
 40
1
 40
1
 40
1
 40
1
 10
234.566921
 20
250.018582
 30
0.0
 10
233.251359
 20
250.778123
 30
0.0
 10
232.440939
 20
252.181811
 30
0.0
 10
232.440939
 20
253.700892
 30
0.0
  0
SPLINE
  5
151
100
AcDbEntity
  8
Holes
 62
1
100
AcDbSpline
 70
8
 71
3
 72
8
 73
4
 74
0
 40
0
 40
0
 40
0
 40
0
 40
1
 40
1
 40
1
 40
1
 10
232.440939
 20
253.700892
 30
0.0
 10
232.440939
 20
255.219973
 30
0.0
 10
233.251359
 20
256.623661
 30
0.0
 10
234.566921
 20
257.383201
 30
0.0
  0
SPLINE
  5
152
100
AcDbEntity
  8
Holes
 62
1
100
AcDbSpline
 70
8
 71
3
 72
8
 73
4
 74
0
 40
0
 40
0
 40
0
 40
0
 40
1
 40
1
 40
1
 40
1
 10
234.566921
 20
257.383201
 30
0.0
 10
235.882484
 20
258.142742
 30
0.0
 10
237.503324
 20
258.142742
 30
0.0
 10
238.818886
 20
257.383201
 30
0.0
  0
SPLINE
  5
153
100
AcDbEntity
  8
Holes
 62
1
100
AcDbSpline
 70
8
 71
3
 72
8
 73
4
 74
0
 40
0
 40
0
 40
0
 40
0
 40
1
 40
1
 40
1
 40
1
 10
238.818886
 20
257.383201
 30
0.0
 10
240.134449
 20
256.623661
 30
0.0
 10
240.944869
 20
255.219973
 30
0.0
 10
240.944869
 20
253.700892
 30
0.0
  0
LWPOLYLINE
  5
154
100
AcDbEntity
  8
Holes
 62
1
100
AcDbPolyline
 90
1
 70
1
 10
147.401545
 20
253.700892
 30
0.0
  0
SPLINE
  5
155
100
AcDbEntity
  8
Holes
 62
1
100
AcDbSpline
 70
8
 71
3
 72
8
 73
4
 74
0
 40
0
 40
0
 40
0
 40
0
 40
1
 40
1
 40
1
 40
1
 10
272.125950
 20
160.157670
 30
0.0
 10
272.125950
 20
158.638589
 30
0.0
 10
271.315530
 20
157.234900
 30
0.0
 10
269.999967
 20
156.475360
 30
0.0
  0
SPLINE
  5
156
100
AcDbEntity
  8
Holes
 62
1
100
AcDbSpline
 70
8
 71
3
 72
8
 73
4
 74
0
 40
0
 40
0
 40
0
 40
0
 40
1
 40
1
 40
1
 40
1
 10
269.999967
 20
156.475360
 30
0.0
 10
268.684405
 20
155.715820
 30
0.0
 10
267.063565
 20
155.715820
 30
0.0
 10
265.748003
 20
156.475360
 30
0.0
  0
SPLINE
  5
157
100
AcDbEntity
  8
Holes
 62
1
100
AcDbSpline
 70
8
 71
3
 72
8
 73
4
 74
0
 40
0
 40
0
 40
0
 40
0
 40
1
 40
1
 40
1
 40
1
 10
265.748003
 20
156.475360
 30
0.0
 10
264.432440
 20
157.234900
 30
0.0
 10
263.622020
 20
158.638589
 30
0.0
 10
263.622020
 20
160.157670
 30
0.0
  0
SPLINE
  5
158
100
AcDbEntity
  8
Holes
 62
1
100
AcDbSpline
 70
8
 71
3
 72
8
 73
4
 74
0
 40
0
 40
0
 40
0
 40
0
 40
1
 40
1
 40
1
 40
1
 10
263.622020
 20
160.157670
 30
0.0
 10
263.622020
 20
161.676750
 30
0.0
 10
264.432440
 20
163.080439
 30
0.0
 10
265.748003
 20
163.839979
 30
0.0
  0
SPLINE
  5
159
100
AcDbEntity
  8
Holes
 62
1
100
AcDbSpline
 70
8
 71
3
 72
8
 73
4
 74
0
 40
0
 40
0
 40
0
 40
0
 40
1
 40
1
 40
1
 40
1
 10
265.748003
 20
163.839979
 30
0.0
 10
267.063565
 20
164.599519
 30
0.0
 10
268.684405
 20
164.599519
 30
0.0
 10
269.999967
 20
163.839979
 30
0.0
  0
SPLINE
  5
15a
100
AcDbEntity
  8
Holes
 62
1
100
AcDbSpline
 70
8
 71
3
 72
8
 73
4
 74
0
 40
0
 40
0
 40
0
 40
0
 40
1
 40
1
 40
1
 40
1
 10
269.999967
 20
163.839979
 30
0.0
 10
271.315530
 20
163.080439
 30
0.0
 10
272.125950
 20
161.676750
 30
0.0
 10
272.125950
 20
160.157670
 30
0.0
  0
LWPOLYLINE
  5
15b
100
AcDbEntity
  8
Holes
 62
1
100
AcDbPolyline
 90
1
 70
1
 10
240.944869
 20
253.700892
 30
0.0
  0
SPLINE
  5
15c
100
AcDbEntity
  8
Holes
 62
1
100
AcDbSpline
 70
8
 71
3
 72
8
 73
4
 74
0
 40
0
 40
0
 40
0
 40
0
 40
1
 40
1
 40
1
 40
1
 10
365.669289
 20
160.157572
 30
0.0
 10
365.669289
 20
158.638491
 30
0.0
 10
364.858869
 20
157.234803
 30
0.0
 10
363.543306
 20
156.475263
 30
0.0
  0
SPLINE
  5
15d
100
AcDbEntity
  8
Holes
 62
1
100
AcDbSpline
 70
8
 71
3
 72
8
 73
4
 74
0
 40
0
 40
0
 40
0
 40
0
 40
1
 40
1
 40
1
 40
1
 10
363.543306
 20
156.475263
 30
0.0
 10
362.227744
 20
155.715722
 30
0.0
 10
360.606904
 20
155.715722
 30
0.0
 10
359.291342
 20
156.475263
 30
0.0
  0
SPLINE
  5
15e
100
AcDbEntity
  8
Holes
 62
1
100
AcDbSpline
 70
8
 71
3
 72
8
 73
4
 74
0
 40
0
 40
0
 40
0
 40
0
 40
1
 40
1
 40
1
 40
1
 10
359.291342
 20
156.475263
 30
0.0
 10
357.975779
 20
157.234803
 30
0.0
 10
357.165359
 20
158.638491
 30
0.0
 10
357.165359
 20
160.157572
 30
0.0
  0
SPLINE
  5
15f
100
AcDbEntity
  8
Holes
 62
1
100
AcDbSpline
 70
8
 71
3
 72
8
 73
4
 74
0
 40
0
 40
0
 40
0
 40
0
 40
1
 40
1
 40
1
 40
1
 10
357.165359
 20
160.157572
 30
0.0
 10
357.165359
 20
161.676653
 30
0.0
 10
357.975779
 20
163.080341
 30
0.0
 10
359.291342
 20
163.839881
 30
0.0
  0
SPLINE
  5
160
100
AcDbEntity
  8
Holes
 62
1
100
AcDbSpline
 70
8
 71
3
 72
8
 73
4
 74
0
 40
0
 40
0
 40
0
 40
0
 40
1
 40
1
 40
1
 40
1
 10
359.291342
 20
163.839881
 30
0.0
 10
360.606904
 20
164.599422
 30
0.0
 10
362.227744
 20
164.599422
 30
0.0
 10
363.543306
 20
163.839881
 30
0.0
  0
SPLINE
  5
161
100
AcDbEntity
  8
Holes
 62
1
100
AcDbSpline
 70
8
 71
3
 72
8
 73
4
 74
0
 40
0
 40
0
 40
0
 40
0
 40
1
 40
1
 40
1
 40
1
 10
363.543306
 20
163.839881
 30
0.0
 10
364.858869
 20
163.080341
 30
0.0
 10
365.669289
 20
161.676653
 30
0.0
 10
365.669289
 20
160.157572
 30
0.0
  0
LWPOLYLINE
  5
162
100
AcDbEntity
  8
Holes
 62
1
100
AcDbPolyline
 90
1
 70
1
 10
272.125950
 20
160.157670
 30
0.0
  0
SPLINE
  5
163
100
AcDbEntity
  8
Holes
 62
1
100
AcDbSpline
 70
8
 71
3
 72
8
 73
4
 74
0
 40
0
 40
0
 40
0
 40
0
 40
1
 40
1
 40
1
 40
1
 10
272.125950
 20
253.700940
 30
0.0
 10
272.125950
 20
252.181859
 30
0.0
 10
271.315530
 20
250.778171
 30
0.0
 10
269.999967
 20
250.018630
 30
0.0
  0
SPLINE
  5
164
100
AcDbEntity
  8
Holes
 62
1
100
AcDbSpline
 70
8
 71
3
 72
8
 73
4
 74
0
 40
0
 40
0
 40
0
 40
0
 40
1
 40
1
 40
1
 40
1
 10
269.999967
 20
250.018630
 30
0.0
 10
268.684405
 20
249.259090
 30
0.0
 10
267.063565
 20
249.259090
 30
0.0
 10
265.748003
 20
250.018630
 30
0.0
  0
SPLINE
  5
165
100
AcDbEntity
  8
Holes
 62
1
100
AcDbSpline
 70
8
 71
3
 72
8
 73
4
 74
0
 40
0
 40
0
 40
0
 40
0
 40
1
 40
1
 40
1
 40
1
 10
265.748003
 20
250.018630
 30
0.0
 10
264.432440
 20
250.778171
 30
0.0
 10
263.622020
 20
252.181859
 30
0.0
 10
263.622020
 20
253.700940
 30
0.0
  0
SPLINE
  5
166
100
AcDbEntity
  8
Holes
 62
1
100
AcDbSpline
 70
8
 71
3
 72
8
 73
4
 74
0
 40
0
 40
0
 40
0
 40
0
 40
1
 40
1
 40
1
 40
1
 10
263.622020
 20
253.700940
 30
0.0
 10
263.622020
 20
255.220021
 30
0.0
 10
264.432440
 20
256.623709
 30
0.0
 10
265.748003
 20
257.383249
 30
0.0
  0
SPLINE
  5
167
100
AcDbEntity
  8
Holes
 62
1
100
AcDbSpline
 70
8
 71
3
 72
8
 73
4
 74
0
 40
0
 40
0
 40
0
 40
0
 40
1
 40
1
 40
1
 40
1
 10
265.748003
 20
257.383249
 30
0.0
 10
267.063565
 20
258.142790
 30
0.0
 10
268.684405
 20
258.142790
 30
0.0
 10
269.999967
 20
257.383249
 30
0.0
  0
SPLINE
  5
168
100
AcDbEntity
  8
Holes
 62
1
100
AcDbSpline
 70
8
 71
3
 72
8
 73
4
 74
0
 40
0
 40
0
 40
0
 40
0
 40
1
 40
1
 40
1
 40
1
 10
269.999967
 20
257.383249
 30
0.0
 10
271.315530
 20
256.623709
 30
0.0
 10
272.125950
 20
255.220021
 30
0.0
 10
272.125950
 20
253.700940
 30
0.0
  0
LWPOLYLINE
  5
169
100
AcDbEntity
  8
Holes
 62
1
100
AcDbPolyline
 90
1
 70
1
 10
365.669289
 20
160.157572
 30
0.0
  0
SPLINE
  5
16a
100
AcDbEntity
  8
Holes
 62
1
100
AcDbSpline
 70
8
 71
3
 72
8
 73
4
 74
0
 40
0
 40
0
 40
0
 40
0
 40
1
 40
1
 40
1
 40
1
 10
365.669289
 20
253.700940
 30
0.0
 10
365.669289
 20
252.181859
 30
0.0
 10
364.858869
 20
250.778171
 30
0.0
 10
363.543306
 20
250.018630
 30
0.0
  0
SPLINE
  5
16b
100
AcDbEntity
  8
Holes
 62
1
100
AcDbSpline
 70
8
 71
3
 72
8
 73
4
 74
0
 40
0
 40
0
 40
0
 40
0
 40
1
 40
1
 40
1
 40
1
 10
363.543306
 20
250.018630
 30
0.0
 10
362.227744
 20
249.259090
 30
0.0
 10
360.606904
 20
249.259090
 30
0.0
 10
359.291342
 20
250.018630
 30
0.0
  0
SPLINE
  5
16c
100
AcDbEntity
  8
Holes
 62
1
100
AcDbSpline
 70
8
 71
3
 72
8
 73
4
 74
0
 40
0
 40
0
 40
0
 40
0
 40
1
 40
1
 40
1
 40
1
 10
359.291342
 20
250.018630
 30
0.0
 10
357.975779
 20
250.778171
 30
0.0
 10
357.165359
 20
252.181859
 30
0.0
 10
357.165359
 20
253.700940
 30
0.0
  0
SPLINE
  5
16d
100
AcDbEntity
  8
Holes
 62
1
100
AcDbSpline
 70
8
 71
3
 72
8
 73
4
 74
0
 40
0
 40
0
 40
0
 40
0
 40
1
 40
1
 40
1
 40
1
 10
357.165359
 20
253.700940
 30
0.0
 10
357.165359
 20
255.220021
 30
0.0
 10
357.975779
 20
256.623709
 30
0.0
 10
359.291342
 20
257.383249
 30
0.0
  0
SPLINE
  5
16e
100
AcDbEntity
  8
Holes
 62
1
100
AcDbSpline
 70
8
 71
3
 72
8
 73
4
 74
0
 40
0
 40
0
 40
0
 40
0
 40
1
 40
1
 40
1
 40
1
 10
359.291342
 20
257.383249
 30
0.0
 10
360.606904
 20
258.142790
 30
0.0
 10
362.227744
 20
258.142790
 30
0.0
 10
363.543306
 20
257.383249
 30
0.0
  0
SPLINE
  5
16f
100
AcDbEntity
  8
Holes
 62
1
100
AcDbSpline
 70
8
 71
3
 72
8
 73
4
 74
0
 40
0
 40
0
 40
0
 40
0
 40
1
 40
1
 40
1
 40
1
 10
363.543306
 20
257.383249
 30
0.0
 10
364.858869
 20
256.623709
 30
0.0
 10
365.669289
 20
255.220021
 30
0.0
 10
365.669289
 20
253.700940
 30
0.0
  0
LWPOLYLINE
  5
170
100
AcDbEntity
  8
Holes
 62
1
100
AcDbPolyline
 90
1
 70
1
 10
272.125950
 20
253.700940
 30
0.0
  0
SPLINE
  5
171
100
AcDbEntity
  8
Holes
 62
1
100
AcDbSpline
 70
8
 71
3
 72
8
 73
4
 74
0
 40
0
 40
0
 40
0
 40
0
 40
1
 40
1
 40
1
 40
1
 10
396.850418
 20
160.157670
 30
0.0
 10
396.850418
 20
158.638589
 30
0.0
 10
396.039998
 20
157.234900
 30
0.0
 10
394.724435
 20
156.475360
 30
0.0
  0
SPLINE
  5
172
100
AcDbEntity
  8
Holes
 62
1
100
AcDbSpline
 70
8
 71
3
 72
8
 73
4
 74
0
 40
0
 40
0
 40
0
 40
0
 40
1
 40
1
 40
1
 40
1
 10
394.724435
 20
156.475360
 30
0.0
 10
393.408873
 20
155.715820
 30
0.0
 10
391.788033
 20
155.715820
 30
0.0
 10
390.472471
 20
156.475360
 30
0.0
  0
SPLINE
  5
173
100
AcDbEntity
  8
Holes
 62
1
100
AcDbSpline
 70
8
 71
3
 72
8
 73
4
 74
0
 40
0
 40
0
 40
0
 40
0
 40
1
 40
1
 40
1
 40
1
 10
390.472471
 20
156.475360
 30
0.0
 10
389.156908
 20
157.234900
 30
0.0
 10
388.346488
 20
158.638589
 30
0.0
 10
388.346488
 20
160.157670
 30
0.0
  0
SPLINE
  5
174
100
AcDbEntity
  8
Holes
 62
1
100
AcDbSpline
 70
8
 71
3
 72
8
 73
4
 74
0
 40
0
 40
0
 40
0
 40
0
 40
1
 40
1
 40
1
 40
1
 10
388.346488
 20
160.157670
 30
0.0
 10
388.346488
 20
161.676750
 30
0.0
 10
389.156908
 20
163.080439
 30
0.0
 10
390.472471
 20
163.839979
 30
0.0
  0
SPLINE
  5
175
100
AcDbEntity
  8
Holes
 62
1
100
AcDbSpline
 70
8
 71
3
 72
8
 73
4
 74
0
 40
0
 40
0
 40
0
 40
0
 40
1
 40
1
 40
1
 40
1
 10
390.472471
 20
163.839979
 30
0.0
 10
391.788033
 20
164.599519
 30
0.0
 10
393.408873
 20
164.599519
 30
0.0
 10
394.724435
 20
163.839979
 30
0.0
  0
SPLINE
  5
176
100
AcDbEntity
  8
Holes
 62
1
100
AcDbSpline
 70
8
 71
3
 72
8
 73
4
 74
0
 40
0
 40
0
 40
0
 40
0
 40
1
 40
1
 40
1
 40
1
 10
394.724435
 20
163.839979
 30
0.0
 10
396.039998
 20
163.080439
 30
0.0
 10
396.850418
 20
161.676750
 30
0.0
 10
396.850418
 20
160.157670
 30
0.0
  0
LWPOLYLINE
  5
177
100
AcDbEntity
  8
Holes
 62
1
100
AcDbPolyline
 90
1
 70
1
 10
365.669289
 20
253.700940
 30
0.0
  0
SPLINE
  5
178
100
AcDbEntity
  8
Holes
 62
1
100
AcDbSpline
 70
8
 71
3
 72
8
 73
4
 74
0
 40
0
 40
0
 40
0
 40
0
 40
1
 40
1
 40
1
 40
1
 10
490.393733
 20
160.157572
 30
0.0
 10
490.393733
 20
158.638491
 30
0.0
 10
489.583313
 20
157.234803
 30
0.0
 10
488.267751
 20
156.475263
 30
0.0
  0
SPLINE
  5
179
100
AcDbEntity
  8
Holes
 62
1
100
AcDbSpline
 70
8
 71
3
 72
8
 73
4
 74
0
 40
0
 40
0
 40
0
 40
0
 40
1
 40
1
 40
1
 40
1
 10
488.267751
 20
156.475263
 30
0.0
 10
486.952188
 20
155.715722
 30
0.0
 10
485.331348
 20
155.715722
 30
0.0
 10
484.015786
 20
156.475263
 30
0.0
  0
SPLINE
  5
17a
100
AcDbEntity
  8
Holes
 62
1
100
AcDbSpline
 70
8
 71
3
 72
8
 73
4
 74
0
 40
0
 40
0
 40
0
 40
0
 40
1
 40
1
 40
1
 40
1
 10
484.015786
 20
156.475263
 30
0.0
 10
482.700223
 20
157.234803
 30
0.0
 10
481.889804
 20
158.638491
 30
0.0
 10
481.889804
 20
160.157572
 30
0.0
  0
SPLINE
  5
17b
100
AcDbEntity
  8
Holes
 62
1
100
AcDbSpline
 70
8
 71
3
 72
8
 73
4
 74
0
 40
0
 40
0
 40
0
 40
0
 40
1
 40
1
 40
1
 40
1
 10
481.889804
 20
160.157572
 30
0.0
 10
481.889804
 20
161.676653
 30
0.0
 10
482.700223
 20
163.080341
 30
0.0
 10
484.015786
 20
163.839881
 30
0.0
  0
SPLINE
  5
17c
100
AcDbEntity
  8
Holes
 62
1
100
AcDbSpline
 70
8
 71
3
 72
8
 73
4
 74
0
 40
0
 40
0
 40
0
 40
0
 40
1
 40
1
 40
1
 40
1
 10
484.015786
 20
163.839881
 30
0.0
 10
485.331348
 20
164.599422
 30
0.0
 10
486.952188
 20
164.599422
 30
0.0
 10
488.267751
 20
163.839881
 30
0.0
  0
SPLINE
  5
17d
100
AcDbEntity
  8
Holes
 62
1
100
AcDbSpline
 70
8
 71
3
 72
8
 73
4
 74
0
 40
0
 40
0
 40
0
 40
0
 40
1
 40
1
 40
1
 40
1
 10
488.267751
 20
163.839881
 30
0.0
 10
489.583313
 20
163.080341
 30
0.0
 10
490.393733
 20
161.676653
 30
0.0
 10
490.393733
 20
160.157572
 30
0.0
  0
LWPOLYLINE
  5
17e
100
AcDbEntity
  8
Holes
 62
1
100
AcDbPolyline
 90
1
 70
1
 10
396.850418
 20
160.157670
 30
0.0
  0
SPLINE
  5
17f
100
AcDbEntity
  8
Holes
 62
1
100
AcDbSpline
 70
8
 71
3
 72
8
 73
4
 74
0
 40
0
 40
0
 40
0
 40
0
 40
1
 40
1
 40
1
 40
1
 10
396.850394
 20
253.700892
 30
0.0
 10
396.850394
 20
252.181811
 30
0.0
 10
396.039974
 20
250.778123
 30
0.0
 10
394.724411
 20
250.018582
 30
0.0
  0
SPLINE
  5
180
100
AcDbEntity
  8
Holes
 62
1
100
AcDbSpline
 70
8
 71
3
 72
8
 73
4
 74
0
 40
0
 40
0
 40
0
 40
0
 40
1
 40
1
 40
1
 40
1
 10
394.724411
 20
250.018582
 30
0.0
 10
393.408849
 20
249.259042
 30
0.0
 10
391.788009
 20
249.259042
 30
0.0
 10
390.472447
 20
250.018582
 30
0.0
  0
SPLINE
  5
181
100
AcDbEntity
  8
Holes
 62
1
100
AcDbSpline
 70
8
 71
3
 72
8
 73
4
 74
0
 40
0
 40
0
 40
0
 40
0
 40
1
 40
1
 40
1
 40
1
 10
390.472447
 20
250.018582
 30
0.0
 10
389.156884
 20
250.778123
 30
0.0
 10
388.346464
 20
252.181811
 30
0.0
 10
388.346464
 20
253.700892
 30
0.0
  0
SPLINE
  5
182
100
AcDbEntity
  8
Holes
 62
1
100
AcDbSpline
 70
8
 71
3
 72
8
 73
4
 74
0
 40
0
 40
0
 40
0
 40
0
 40
1
 40
1
 40
1
 40
1
 10
388.346464
 20
253.700892
 30
0.0
 10
388.346464
 20
255.219973
 30
0.0
 10
389.156884
 20
256.623661
 30
0.0
 10
390.472447
 20
257.383201
 30
0.0
  0
SPLINE
  5
183
100
AcDbEntity
  8
Holes
 62
1
100
AcDbSpline
 70
8
 71
3
 72
8
 73
4
 74
0
 40
0
 40
0
 40
0
 40
0
 40
1
 40
1
 40
1
 40
1
 10
390.472447
 20
257.383201
 30
0.0
 10
391.788009
 20
258.142742
 30
0.0
 10
393.408849
 20
258.142742
 30
0.0
 10
394.724411
 20
257.383201
 30
0.0
  0
SPLINE
  5
184
100
AcDbEntity
  8
Holes
 62
1
100
AcDbSpline
 70
8
 71
3
 72
8
 73
4
 74
0
 40
0
 40
0
 40
0
 40
0
 40
1
 40
1
 40
1
 40
1
 10
394.724411
 20
257.383201
 30
0.0
 10
396.039974
 20
256.623661
 30
0.0
 10
396.850394
 20
255.219973
 30
0.0
 10
396.850394
 20
253.700892
 30
0.0
  0
LWPOLYLINE
  5
185
100
AcDbEntity
  8
Holes
 62
1
100
AcDbPolyline
 90
1
 70
1
 10
490.393733
 20
160.157572
 30
0.0
  0
SPLINE
  5
186
100
AcDbEntity
  8
Holes
 62
1
100
AcDbSpline
 70
8
 71
3
 72
8
 73
4
 74
0
 40
0
 40
0
 40
0
 40
0
 40
1
 40
1
 40
1
 40
1
 10
490.393733
 20
253.700892
 30
0.0
 10
490.393733
 20
252.181811
 30
0.0
 10
489.583313
 20
250.778123
 30
0.0
 10
488.267751
 20
250.018582
 30
0.0
  0
SPLINE
  5
187
100
AcDbEntity
  8
Holes
 62
1
100
AcDbSpline
 70
8
 71
3
 72
8
 73
4
 74
0
 40
0
 40
0
 40
0
 40
0
 40
1
 40
1
 40
1
 40
1
 10
488.267751
 20
250.018582
 30
0.0
 10
486.952188
 20
249.259042
 30
0.0
 10
485.331348
 20
249.259042
 30
0.0
 10
484.015786
 20
250.018582
 30
0.0
  0
SPLINE
  5
188
100
AcDbEntity
  8
Holes
 62
1
100
AcDbSpline
 70
8
 71
3
 72
8
 73
4
 74
0
 40
0
 40
0
 40
0
 40
0
 40
1
 40
1
 40
1
 40
1
 10
484.015786
 20
250.018582
 30
0.0
 10
482.700223
 20
250.778123
 30
0.0
 10
481.889804
 20
252.181811
 30
0.0
 10
481.889804
 20
253.700892
 30
0.0
  0
SPLINE
  5
189
100
AcDbEntity
  8
Holes
 62
1
100
AcDbSpline
 70
8
 71
3
 72
8
 73
4
 74
0
 40
0
 40
0
 40
0
 40
0
 40
1
 40
1
 40
1
 40
1
 10
481.889804
 20
253.700892
 30
0.0
 10
481.889804
 20
255.219973
 30
0.0
 10
482.700223
 20
256.623661
 30
0.0
 10
484.015786
 20
257.383201
 30
0.0
  0
SPLINE
  5
18a
100
AcDbEntity
  8
Holes
 62
1
100
AcDbSpline
 70
8
 71
3
 72
8
 73
4
 74
0
 40
0
 40
0
 40
0
 40
0
 40
1
 40
1
 40
1
 40
1
 10
484.015786
 20
257.383201
 30
0.0
 10
485.331348
 20
258.142742
 30
0.0
 10
486.952188
 20
258.142742
 30
0.0
 10
488.267751
 20
257.383201
 30
0.0
  0
SPLINE
  5
18b
100
AcDbEntity
  8
Holes
 62
1
100
AcDbSpline
 70
8
 71
3
 72
8
 73
4
 74
0
 40
0
 40
0
 40
0
 40
0
 40
1
 40
1
 40
1
 40
1
 10
488.267751
 20
257.383201
 30
0.0
 10
489.583313
 20
256.623661
 30
0.0
 10
490.393733
 20
255.219973
 30
0.0
 10
490.393733
 20
253.700892
 30
0.0
  0
LWPOLYLINE
  5
18c
100
AcDbEntity
  8
Holes
 62
1
100
AcDbPolyline
 90
1
 70
1
 10
396.850394
 20
253.700892
 30
0.0
  0
SPLINE
  5
18d
100
AcDbEntity
  8
Holes
 62
1
100
AcDbSpline
 70
8
 71
3
 72
8
 73
4
 74
0
 40
0
 40
0
 40
0
 40
0
 40
1
 40
1
 40
1
 40
1
 10
22.677168
 20
160.157621
 30
0.0
 10
22.677168
 20
158.638540
 30
0.0
 10
21.866748
 20
157.234852
 30
0.0
 10
20.551186
 20
156.475311
 30
0.0
  0
SPLINE
  5
18e
100
AcDbEntity
  8
Holes
 62
1
100
AcDbSpline
 70
8
 71
3
 72
8
 73
4
 74
0
 40
0
 40
0
 40
0
 40
0
 40
1
 40
1
 40
1
 40
1
 10
20.551186
 20
156.475311
 30
0.0
 10
19.235624
 20
155.715771
 30
0.0
 10
17.614784
 20
155.715771
 30
0.0
 10
16.299221
 20
156.475311
 30
0.0
  0
SPLINE
  5
18f
100
AcDbEntity
  8
Holes
 62
1
100
AcDbSpline
 70
8
 71
3
 72
8
 73
4
 74
0
 40
0
 40
0
 40
0
 40
0
 40
1
 40
1
 40
1
 40
1
 10
16.299221
 20
156.475311
 30
0.0
 10
14.983659
 20
157.234852
 30
0.0
 10
14.173239
 20
158.638540
 30
0.0
 10
14.173239
 20
160.157621
 30
0.0
  0
SPLINE
  5
190
100
AcDbEntity
  8
Holes
 62
1
100
AcDbSpline
 70
8
 71
3
 72
8
 73
4
 74
0
 40
0
 40
0
 40
0
 40
0
 40
1
 40
1
 40
1
 40
1
 10
14.173239
 20
160.157621
 30
0.0
 10
14.173239
 20
162.505916
 30
0.0
 10
16.076908
 20
164.409585
 30
0.0
 10
18.425204
 20
164.409585
 30
0.0
  0
SPLINE
  5
191
100
AcDbEntity
  8
Holes
 62
1
100
AcDbSpline
 70
8
 71
3
 72
8
 73
4
 74
0
 40
0
 40
0
 40
0
 40
0
 40
1
 40
1
 40
1
 40
1
 10
18.425204
 20
164.409585
 30
0.0
 10
20.773499
 20
164.409585
 30
0.0
 10
22.677168
 20
162.505916
 30
0.0
 10
22.677168
 20
160.157621
 30
0.0
  0
LWPOLYLINE
  5
192
100
AcDbEntity
  8
Holes
 62
1
100
AcDbPolyline
 90
1
 70
1
 10
490.393733
 20
253.700892
 30
0.0
  0
SPLINE
  5
193
100
AcDbEntity
  8
Holes
 62
1
100
AcDbSpline
 70
8
 71
3
 72
8
 73
4
 74
0
 40
0
 40
0
 40
0
 40
0
 40
1
 40
1
 40
1
 40
1
 10
116.220472
 20
160.157523
 30
0.0
 10
116.220472
 20
158.638442
 30
0.0
 10
115.410052
 20
157.234754
 30
0.0
 10
114.094490
 20
156.475214
 30
0.0
  0
SPLINE
  5
194
100
AcDbEntity
  8
Holes
 62
1
100
AcDbSpline
 70
8
 71
3
 72
8
 73
4
 74
0
 40
0
 40
0
 40
0
 40
0
 40
1
 40
1
 40
1
 40
1
 10
114.094490
 20
156.475214
 30
0.0
 10
112.778927
 20
155.715673
 30
0.0
 10
111.158088
 20
155.715673
 30
0.0
 10
109.842525
 20
156.475214
 30
0.0
  0
SPLINE
  5
195
100
AcDbEntity
  8
Holes
 62
1
100
AcDbSpline
 70
8
 71
3
 72
8
 73
4
 74
0
 40
0
 40
0
 40
0
 40
0
 40
1
 40
1
 40
1
 40
1
 10
109.842525
 20
156.475214
 30
0.0
 10
108.526963
 20
157.234754
 30
0.0
 10
107.716543
 20
158.638442
 30
0.0
 10
107.716543
 20
160.157523
 30
0.0
  0
SPLINE
  5
196
100
AcDbEntity
  8
Holes
 62
1
100
AcDbSpline
 70
8
 71
3
 72
8
 73
4
 74
0
 40
0
 40
0
 40
0
 40
0
 40
1
 40
1
 40
1
 40
1
 10
107.716543
 20
160.157523
 30
0.0
 10
107.716543
 20
161.676604
 30
0.0
 10
108.526963
 20
163.080292
 30
0.0
 10
109.842525
 20
163.839833
 30
0.0
  0
SPLINE
  5
197
100
AcDbEntity
  8
Holes
 62
1
100
AcDbSpline
 70
8
 71
3
 72
8
 73
4
 74
0
 40
0
 40
0
 40
0
 40
0
 40
1
 40
1
 40
1
 40
1
 10
109.842525
 20
163.839833
 30
0.0
 10
111.158088
 20
164.599373
 30
0.0
 10
112.778927
 20
164.599373
 30
0.0
 10
114.094490
 20
163.839833
 30
0.0
  0
SPLINE
  5
198
100
AcDbEntity
  8
Holes
 62
1
100
AcDbSpline
 70
8
 71
3
 72
8
 73
4
 74
0
 40
0
 40
0
 40
0
 40
0
 40
1
 40
1
 40
1
 40
1
 10
114.094490
 20
163.839833
 30
0.0
 10
115.410052
 20
163.080292
 30
0.0
 10
116.220472
 20
161.676604
 30
0.0
 10
116.220472
 20
160.157523
 30
0.0
  0
LWPOLYLINE
  5
199
100
AcDbEntity
  8
Holes
 62
1
100
AcDbPolyline
 90
1
 70
1
 10
22.677168
 20
160.157621
 30
0.0
  0
SPLINE
  5
19a
100
AcDbEntity
  8
Holes
 62
1
100
AcDbSpline
 70
8
 71
3
 72
8
 73
4
 74
0
 40
0
 40
0
 40
0
 40
0
 40
1
 40
1
 40
1
 40
1
 10
22.677120
 20
253.700844
 30
0.0
 10
22.677119
 20
251.352549
 30
0.0
 10
20.773450
 20
249.448879
 30
0.0
 10
18.425155
 20
249.448879
 30
0.0
  0
SPLINE
  5
19b
100
AcDbEntity
  8
Holes
 62
1
100
AcDbSpline
 70
8
 71
3
 72
8
 73
4
 74
0
 40
0
 40
0
 40
0
 40
0
 40
1
 40
1
 40
1
 40
1
 10
18.425155
 20
249.448879
 30
0.0
 10
16.076860
 20
249.448879
 30
0.0
 10
14.173190
 20
251.352549
 30
0.0
 10
14.173190
 20
253.700844
 30
0.0
  0
SPLINE
  5
19c
100
AcDbEntity
  8
Holes
 62
1
100
AcDbSpline
 70
8
 71
3
 72
8
 73
4
 74
0
 40
0
 40
0
 40
0
 40
0
 40
1
 40
1
 40
1
 40
1
 10
14.173190
 20
253.700844
 30
0.0
 10
14.173190
 20
255.219925
 30
0.0
 10
14.983610
 20
256.623613
 30
0.0
 10
16.299172
 20
257.383153
 30
0.0
  0
SPLINE
  5
19d
100
AcDbEntity
  8
Holes
 62
1
100
AcDbSpline
 70
8
 71
3
 72
8
 73
4
 74
0
 40
0
 40
0
 40
0
 40
0
 40
1
 40
1
 40
1
 40
1
 10
16.299172
 20
257.383153
 30
0.0
 10
17.614735
 20
258.142694
 30
0.0
 10
19.235575
 20
258.142694
 30
0.0
 10
20.551137
 20
257.383153
 30
0.0
  0
SPLINE
  5
19e
100
AcDbEntity
  8
Holes
 62
1
100
AcDbSpline
 70
8
 71
3
 72
8
 73
4
 74
0
 40
0
 40
0
 40
0
 40
0
 40
1
 40
1
 40
1
 40
1
 10
20.551137
 20
257.383153
 30
0.0
 10
21.866700
 20
256.623613
 30
0.0
 10
22.677120
 20
255.219925
 30
0.0
 10
22.677120
 20
253.700844
 30
0.0
  0
LWPOLYLINE
  5
19f
100
AcDbEntity
  8
Holes
 62
1
100
AcDbPolyline
 90
1
 70
1
 10
116.220472
 20
160.157523
 30
0.0
  0
SPLINE
  5
1a0
100
AcDbEntity
  8
Holes
 62
1
100
AcDbSpline
 70
8
 71
3
 72
8
 73
4
 74
0
 40
0
 40
0
 40
0
 40
0
 40
1
 40
1
 40
1
 40
1
 10
116.220472
 20
253.700844
 30
0.0
 10
116.220472
 20
252.181763
 30
0.0
 10
115.410052
 20
250.778075
 30
0.0
 10
114.094490
 20
250.018534
 30
0.0
  0
SPLINE
  5
1a1
100
AcDbEntity
  8
Holes
 62
1
100
AcDbSpline
 70
8
 71
3
 72
8
 73
4
 74
0
 40
0
 40
0
 40
0
 40
0
 40
1
 40
1
 40
1
 40
1
 10
114.094490
 20
250.018534
 30
0.0
 10
112.778927
 20
249.258994
 30
0.0
 10
111.158088
 20
249.258994
 30
0.0
 10
109.842525
 20
250.018534
 30
0.0
  0
SPLINE
  5
1a2
100
AcDbEntity
  8
Holes
 62
1
100
AcDbSpline
 70
8
 71
3
 72
8
 73
4
 74
0
 40
0
 40
0
 40
0
 40
0
 40
1
 40
1
 40
1
 40
1
 10
109.842525
 20
250.018534
 30
0.0
 10
108.526963
 20
250.778075
 30
0.0
 10
107.716543
 20
252.181763
 30
0.0
 10
107.716543
 20
253.700844
 30
0.0
  0
SPLINE
  5
1a3
100
AcDbEntity
  8
Holes
 62
1
100
AcDbSpline
 70
8
 71
3
 72
8
 73
4
 74
0
 40
0
 40
0
 40
0
 40
0
 40
1
 40
1
 40
1
 40
1
 10
107.716543
 20
253.700844
 30
0.0
 10
107.716543
 20
255.219925
 30
0.0
 10
108.526963
 20
256.623613
 30
0.0
 10
109.842525
 20
257.383153
 30
0.0
  0
SPLINE
  5
1a4
100
AcDbEntity
  8
Holes
 62
1
100
AcDbSpline
 70
8
 71
3
 72
8
 73
4
 74
0
 40
0
 40
0
 40
0
 40
0
 40
1
 40
1
 40
1
 40
1
 10
109.842525
 20
257.383153
 30
0.0
 10
111.158088
 20
258.142694
 30
0.0
 10
112.778927
 20
258.142694
 30
0.0
 10
114.094490
 20
257.383153
 30
0.0
  0
SPLINE
  5
1a5
100
AcDbEntity
  8
Holes
 62
1
100
AcDbSpline
 70
8
 71
3
 72
8
 73
4
 74
0
 40
0
 40
0
 40
0
 40
0
 40
1
 40
1
 40
1
 40
1
 10
114.094490
 20
257.383153
 30
0.0
 10
115.410052
 20
256.623613
 30
0.0
 10
116.220472
 20
255.219925
 30
0.0
 10
116.220472
 20
253.700844
 30
0.0
  0
LWPOLYLINE
  5
1a6
100
AcDbEntity
  8
Holes
 62
1
100
AcDbPolyline
 90
1
 70
1
 10
22.677120
 20
253.700844
 30
0.0
  0
SPLINE
  5
1a7
100
AcDbEntity
  8
Holes
 62
1
100
AcDbSpline
 70
8
 71
3
 72
8
 73
4
 74
0
 40
0
 40
0
 40
0
 40
0
 40
1
 40
1
 40
1
 40
1
 10
396.850418
 20
35.433309
 30
0.0
 10
396.850418
 20
33.914228
 30
0.0
 10
396.039998
 20
32.510539
 30
0.0
 10
394.724435
 20
31.750999
 30
0.0
  0
SPLINE
  5
1a8
100
AcDbEntity
  8
Holes
 62
1
100
AcDbSpline
 70
8
 71
3
 72
8
 73
4
 74
0
 40
0
 40
0
 40
0
 40
0
 40
1
 40
1
 40
1
 40
1
 10
394.724435
 20
31.750999
 30
0.0
 10
393.408873
 20
30.991459
 30
0.0
 10
391.788033
 20
30.991459
 30
0.0
 10
390.472471
 20
31.750999
 30
0.0
  0
SPLINE
  5
1a9
100
AcDbEntity
  8
Holes
 62
1
100
AcDbSpline
 70
8
 71
3
 72
8
 73
4
 74
0
 40
0
 40
0
 40
0
 40
0
 40
1
 40
1
 40
1
 40
1
 10
390.472471
 20
31.750999
 30
0.0
 10
389.156908
 20
32.510539
 30
0.0
 10
388.346488
 20
33.914228
 30
0.0
 10
388.346488
 20
35.433309
 30
0.0
  0
SPLINE
  5
1aa
100
AcDbEntity
  8
Holes
 62
1
100
AcDbSpline
 70
8
 71
3
 72
8
 73
4
 74
0
 40
0
 40
0
 40
0
 40
0
 40
1
 40
1
 40
1
 40
1
 10
388.346488
 20
35.433309
 30
0.0
 10
388.346488
 20
36.952389
 30
0.0
 10
389.156908
 20
38.356078
 30
0.0
 10
390.472471
 20
39.115618
 30
0.0
  0
SPLINE
  5
1ab
100
AcDbEntity
  8
Holes
 62
1
100
AcDbSpline
 70
8
 71
3
 72
8
 73
4
 74
0
 40
0
 40
0
 40
0
 40
0
 40
1
 40
1
 40
1
 40
1
 10
390.472471
 20
39.115618
 30
0.0
 10
391.788033
 20
39.875158
 30
0.0
 10
393.408873
 20
39.875158
 30
0.0
 10
394.724435
 20
39.115618
 30
0.0
  0
SPLINE
  5
1ac
100
AcDbEntity
  8
Holes
 62
1
100
AcDbSpline
 70
8
 71
3
 72
8
 73
4
 74
0
 40
0
 40
0
 40
0
 40
0
 40
1
 40
1
 40
1
 40
1
 10
394.724435
 20
39.115618
 30
0.0
 10
396.039998
 20
38.356078
 30
0.0
 10
396.850418
 20
36.952389
 30
0.0
 10
396.850418
 20
35.433309
 30
0.0
  0
LWPOLYLINE
  5
1ad
100
AcDbEntity
  8
Holes
 62
1
100
AcDbPolyline
 90
1
 70
1
 10
116.220472
 20
253.700844
 30
0.0
  0
SPLINE
  5
1ae
100
AcDbEntity
  8
Holes
 62
1
100
AcDbSpline
 70
8
 71
3
 72
8
 73
4
 74
0
 40
0
 40
0
 40
0
 40
0
 40
1
 40
1
 40
1
 40
1
 10
490.393733
 20
35.433205
 30
0.0
 10
490.393733
 20
33.914124
 30
0.0
 10
489.583313
 20
32.510435
 30
0.0
 10
488.267751
 20
31.750895
 30
0.0
  0
SPLINE
  5
1af
100
AcDbEntity
  8
Holes
 62
1
100
AcDbSpline
 70
8
 71
3
 72
8
 73
4
 74
0
 40
0
 40
0
 40
0
 40
0
 40
1
 40
1
 40
1
 40
1
 10
488.267751
 20
31.750895
 30
0.0
 10
486.952188
 20
30.991355
 30
0.0
 10
485.331348
 20
30.991355
 30
0.0
 10
484.015786
 20
31.750895
 30
0.0
  0
SPLINE
  5
1b0
100
AcDbEntity
  8
Holes
 62
1
100
AcDbSpline
 70
8
 71
3
 72
8
 73
4
 74
0
 40
0
 40
0
 40
0
 40
0
 40
1
 40
1
 40
1
 40
1
 10
484.015786
 20
31.750895
 30
0.0
 10
482.700223
 20
32.510435
 30
0.0
 10
481.889804
 20
33.914124
 30
0.0
 10
481.889804
 20
35.433205
 30
0.0
  0
SPLINE
  5
1b1
100
AcDbEntity
  8
Holes
 62
1
100
AcDbSpline
 70
8
 71
3
 72
8
 73
4
 74
0
 40
0
 40
0
 40
0
 40
0
 40
1
 40
1
 40
1
 40
1
 10
481.889804
 20
35.433205
 30
0.0
 10
481.889804
 20
36.952285
 30
0.0
 10
482.700223
 20
38.355974
 30
0.0
 10
484.015786
 20
39.115514
 30
0.0
  0
SPLINE
  5
1b2
100
AcDbEntity
  8
Holes
 62
1
100
AcDbSpline
 70
8
 71
3
 72
8
 73
4
 74
0
 40
0
 40
0
 40
0
 40
0
 40
1
 40
1
 40
1
 40
1
 10
484.015786
 20
39.115514
 30
0.0
 10
485.331348
 20
39.875054
 30
0.0
 10
486.952188
 20
39.875054
 30
0.0
 10
488.267751
 20
39.115514
 30
0.0
  0
SPLINE
  5
1b3
100
AcDbEntity
  8
Holes
 62
1
100
AcDbSpline
 70
8
 71
3
 72
8
 73
4
 74
0
 40
0
 40
0
 40
0
 40
0
 40
1
 40
1
 40
1
 40
1
 10
488.267751
 20
39.115514
 30
0.0
 10
489.583313
 20
38.355974
 30
0.0
 10
490.393733
 20
36.952285
 30
0.0
 10
490.393733
 20
35.433205
 30
0.0
  0
LWPOLYLINE
  5
1b4
100
AcDbEntity
  8
Holes
 62
1
100
AcDbPolyline
 90
1
 70
1
 10
396.850418
 20
35.433309
 30
0.0
  0
SPLINE
  5
1b5
100
AcDbEntity
  8
Holes
 62
1
100
AcDbSpline
 70
8
 71
3
 72
8
 73
4
 74
0
 40
0
 40
0
 40
0
 40
0
 40
1
 40
1
 40
1
 40
1
 10
396.850394
 20
128.976418
 30
0.0
 10
396.850394
 20
127.457337
 30
0.0
 10
396.039974
 20
126.053649
 30
0.0
 10
394.724411
 20
125.294109
 30
0.0
  0
SPLINE
  5
1b6
100
AcDbEntity
  8
Holes
 62
1
100
AcDbSpline
 70
8
 71
3
 72
8
 73
4
 74
0
 40
0
 40
0
 40
0
 40
0
 40
1
 40
1
 40
1
 40
1
 10
394.724411
 20
125.294109
 30
0.0
 10
393.408849
 20
124.534568
 30
0.0
 10
391.788009
 20
124.534568
 30
0.0
 10
390.472447
 20
125.294109
 30
0.0
  0
SPLINE
  5
1b7
100
AcDbEntity
  8
Holes
 62
1
100
AcDbSpline
 70
8
 71
3
 72
8
 73
4
 74
0
 40
0
 40
0
 40
0
 40
0
 40
1
 40
1
 40
1
 40
1
 10
390.472447
 20
125.294109
 30
0.0
 10
389.156884
 20
126.053649
 30
0.0
 10
388.346464
 20
127.457337
 30
0.0
 10
388.346464
 20
128.976418
 30
0.0
  0
SPLINE
  5
1b8
100
AcDbEntity
  8
Holes
 62
1
100
AcDbSpline
 70
8
 71
3
 72
8
 73
4
 74
0
 40
0
 40
0
 40
0
 40
0
 40
1
 40
1
 40
1
 40
1
 10
388.346464
 20
128.976418
 30
0.0
 10
388.346464
 20
130.495499
 30
0.0
 10
389.156884
 20
131.899187
 30
0.0
 10
390.472447
 20
132.658728
 30
0.0
  0
SPLINE
  5
1b9
100
AcDbEntity
  8
Holes
 62
1
100
AcDbSpline
 70
8
 71
3
 72
8
 73
4
 74
0
 40
0
 40
0
 40
0
 40
0
 40
1
 40
1
 40
1
 40
1
 10
390.472447
 20
132.658728
 30
0.0
 10
391.788009
 20
133.418268
 30
0.0
 10
393.408849
 20
133.418268
 30
0.0
 10
394.724411
 20
132.658728
 30
0.0
  0
SPLINE
  5
1ba
100
AcDbEntity
  8
Holes
 62
1
100
AcDbSpline
 70
8
 71
3
 72
8
 73
4
 74
0
 40
0
 40
0
 40
0
 40
0
 40
1
 40
1
 40
1
 40
1
 10
394.724411
 20
132.658728
 30
0.0
 10
396.039974
 20
131.899187
 30
0.0
 10
396.850394
 20
130.495499
 30
0.0
 10
396.850394
 20
128.976418
 30
0.0
  0
LWPOLYLINE
  5
1bb
100
AcDbEntity
  8
Holes
 62
1
100
AcDbPolyline
 90
1
 70
1
 10
490.393733
 20
35.433205
 30
0.0
  0
SPLINE
  5
1bc
100
AcDbEntity
  8
Holes
 62
1
100
AcDbSpline
 70
8
 71
3
 72
8
 73
4
 74
0
 40
0
 40
0
 40
0
 40
0
 40
1
 40
1
 40
1
 40
1
 10
490.393733
 20
128.976418
 30
0.0
 10
490.393733
 20
127.457337
 30
0.0
 10
489.583313
 20
126.053649
 30
0.0
 10
488.267751
 20
125.294109
 30
0.0
  0
SPLINE
  5
1bd
100
AcDbEntity
  8
Holes
 62
1
100
AcDbSpline
 70
8
 71
3
 72
8
 73
4
 74
0
 40
0
 40
0
 40
0
 40
0
 40
1
 40
1
 40
1
 40
1
 10
488.267751
 20
125.294109
 30
0.0
 10
486.952188
 20
124.534568
 30
0.0
 10
485.331348
 20
124.534568
 30
0.0
 10
484.015786
 20
125.294109
 30
0.0
  0
SPLINE
  5
1be
100
AcDbEntity
  8
Holes
 62
1
100
AcDbSpline
 70
8
 71
3
 72
8
 73
4
 74
0
 40
0
 40
0
 40
0
 40
0
 40
1
 40
1
 40
1
 40
1
 10
484.015786
 20
125.294109
 30
0.0
 10
482.700223
 20
126.053649
 30
0.0
 10
481.889804
 20
127.457337
 30
0.0
 10
481.889804
 20
128.976418
 30
0.0
  0
SPLINE
  5
1bf
100
AcDbEntity
  8
Holes
 62
1
100
AcDbSpline
 70
8
 71
3
 72
8
 73
4
 74
0
 40
0
 40
0
 40
0
 40
0
 40
1
 40
1
 40
1
 40
1
 10
481.889804
 20
128.976418
 30
0.0
 10
481.889804
 20
130.495499
 30
0.0
 10
482.700223
 20
131.899187
 30
0.0
 10
484.015786
 20
132.658728
 30
0.0
  0
SPLINE
  5
1c0
100
AcDbEntity
  8
Holes
 62
1
100
AcDbSpline
 70
8
 71
3
 72
8
 73
4
 74
0
 40
0
 40
0
 40
0
 40
0
 40
1
 40
1
 40
1
 40
1
 10
484.015786
 20
132.658728
 30
0.0
 10
485.331348
 20
133.418268
 30
0.0
 10
486.952188
 20
133.418268
 30
0.0
 10
488.267751
 20
132.658728
 30
0.0
  0
SPLINE
  5
1c1
100
AcDbEntity
  8
Holes
 62
1
100
AcDbSpline
 70
8
 71
3
 72
8
 73
4
 74
0
 40
0
 40
0
 40
0
 40
0
 40
1
 40
1
 40
1
 40
1
 10
488.267751
 20
132.658728
 30
0.0
 10
489.583313
 20
131.899187
 30
0.0
 10
490.393733
 20
130.495499
 30
0.0
 10
490.393733
 20
128.976418
 30
0.0
  0
LWPOLYLINE
  5
1c2
100
AcDbEntity
  8
Holes
 62
1
100
AcDbPolyline
 90
1
 70
1
 10
396.850394
 20
128.976418
 30
0.0
  0
SPLINE
  5
1c3
100
AcDbEntity
  8
Holes
 62
1
100
AcDbSpline
 70
8
 71
3
 72
8
 73
4
 74
0
 40
0
 40
0
 40
0
 40
0
 40
1
 40
1
 40
1
 40
1
 10
147.401577
 20
35.433197
 30
0.0
 10
147.401577
 20
33.914116
 30
0.0
 10
146.591157
 20
32.510427
 30
0.0
 10
145.275595
 20
31.750887
 30
0.0
  0
SPLINE
  5
1c4
100
AcDbEntity
  8
Holes
 62
1
100
AcDbSpline
 70
8
 71
3
 72
8
 73
4
 74
0
 40
0
 40
0
 40
0
 40
0
 40
1
 40
1
 40
1
 40
1
 10
145.275595
 20
31.750887
 30
0.0
 10
143.960033
 20
30.991347
 30
0.0
 10
142.339193
 20
30.991347
 30
0.0
 10
141.023630
 20
31.750887
 30
0.0
  0
SPLINE
  5
1c5
100
AcDbEntity
  8
Holes
 62
1
100
AcDbSpline
 70
8
 71
3
 72
8
 73
4
 74
0
 40
0
 40
0
 40
0
 40
0
 40
1
 40
1
 40
1
 40
1
 10
141.023630
 20
31.750887
 30
0.0
 10
139.708068
 20
32.510427
 30
0.0
 10
138.897648
 20
33.914116
 30
0.0
 10
138.897648
 20
35.433197
 30
0.0
  0
SPLINE
  5
1c6
100
AcDbEntity
  8
Holes
 62
1
100
AcDbSpline
 70
8
 71
3
 72
8
 73
4
 74
0
 40
0
 40
0
 40
0
 40
0
 40
1
 40
1
 40
1
 40
1
 10
138.897648
 20
35.433197
 30
0.0
 10
138.897648
 20
36.952277
 30
0.0
 10
139.708068
 20
38.355966
 30
0.0
 10
141.023630
 20
39.115506
 30
0.0
  0
SPLINE
  5
1c7
100
AcDbEntity
  8
Holes
 62
1
100
AcDbSpline
 70
8
 71
3
 72
8
 73
4
 74
0
 40
0
 40
0
 40
0
 40
0
 40
1
 40
1
 40
1
 40
1
 10
141.023630
 20
39.115506
 30
0.0
 10
142.339193
 20
39.875046
 30
0.0
 10
143.960033
 20
39.875046
 30
0.0
 10
145.275595
 20
39.115506
 30
0.0
  0
SPLINE
  5
1c8
100
AcDbEntity
  8
Holes
 62
1
100
AcDbSpline
 70
8
 71
3
 72
8
 73
4
 74
0
 40
0
 40
0
 40
0
 40
0
 40
1
 40
1
 40
1
 40
1
 10
145.275595
 20
39.115506
 30
0.0
 10
146.591157
 20
38.355966
 30
0.0
 10
147.401577
 20
36.952277
 30
0.0
 10
147.401577
 20
35.433197
 30
0.0
  0
LWPOLYLINE
  5
1c9
100
AcDbEntity
  8
Holes
 62
1
100
AcDbPolyline
 90
1
 70
1
 10
490.393733
 20
128.976418
 30
0.0
  0
SPLINE
  5
1ca
100
AcDbEntity
  8
Holes
 62
1
100
AcDbSpline
 70
8
 71
3
 72
8
 73
4
 74
0
 40
0
 40
0
 40
0
 40
0
 40
1
 40
1
 40
1
 40
1
 10
240.661397
 20
35.433101
 30
0.0
 10
240.661397
 20
33.914020
 30
0.0
 10
239.850977
 20
32.510331
 30
0.0
 10
238.535414
 20
31.750791
 30
0.0
  0
SPLINE
  5
1cb
100
AcDbEntity
  8
Holes
 62
1
100
AcDbSpline
 70
8
 71
3
 72
8
 73
4
 74
0
 40
0
 40
0
 40
0
 40
0
 40
1
 40
1
 40
1
 40
1
 10
238.535414
 20
31.750791
 30
0.0
 10
237.219852
 20
30.991251
 30
0.0
 10
235.599012
 20
30.991251
 30
0.0
 10
234.283449
 20
31.750791
 30
0.0
  0
SPLINE
  5
1cc
100
AcDbEntity
  8
Holes
 62
1
100
AcDbSpline
 70
8
 71
3
 72
8
 73
4
 74
0
 40
0
 40
0
 40
0
 40
0
 40
1
 40
1
 40
1
 40
1
 10
234.283449
 20
31.750791
 30
0.0
 10
232.967887
 20
32.510331
 30
0.0
 10
232.157467
 20
33.914020
 30
0.0
 10
232.157467
 20
35.433101
 30
0.0
  0
SPLINE
  5
1cd
100
AcDbEntity
  8
Holes
 62
1
100
AcDbSpline
 70
8
 71
3
 72
8
 73
4
 74
0
 40
0
 40
0
 40
0
 40
0
 40
1
 40
1
 40
1
 40
1
 10
232.157467
 20
35.433101
 30
0.0
 10
232.157467
 20
36.952181
 30
0.0
 10
232.967887
 20
38.355870
 30
0.0
 10
234.283449
 20
39.115410
 30
0.0
  0
SPLINE
  5
1ce
100
AcDbEntity
  8
Holes
 62
1
100
AcDbSpline
 70
8
 71
3
 72
8
 73
4
 74
0
 40
0
 40
0
 40
0
 40
0
 40
1
 40
1
 40
1
 40
1
 10
234.283449
 20
39.115410
 30
0.0
 10
235.599012
 20
39.874950
 30
0.0
 10
237.219852
 20
39.874950
 30
0.0
 10
238.535414
 20
39.115410
 30
0.0
  0
SPLINE
  5
1cf
100
AcDbEntity
  8
Holes
 62
1
100
AcDbSpline
 70
8
 71
3
 72
8
 73
4
 74
0
 40
0
 40
0
 40
0
 40
0
 40
1
 40
1
 40
1
 40
1
 10
238.535414
 20
39.115410
 30
0.0
 10
239.850977
 20
38.355870
 30
0.0
 10
240.661397
 20
36.952181
 30
0.0
 10
240.661397
 20
35.433101
 30
0.0
  0
LWPOLYLINE
  5
1d0
100
AcDbEntity
  8
Holes
 62
1
100
AcDbPolyline
 90
1
 70
1
 10
147.401577
 20
35.433197
 30
0.0
  0
SPLINE
  5
1d1
100
AcDbEntity
  8
Holes
 62
1
100
AcDbSpline
 70
8
 71
3
 72
8
 73
4
 74
0
 40
0
 40
0
 40
0
 40
0
 40
1
 40
1
 40
1
 40
1
 10
147.401545
 20
128.976414
 30
0.0
 10
147.401545
 20
127.457333
 30
0.0
 10
146.591125
 20
126.053645
 30
0.0
 10
145.275563
 20
125.294105
 30
0.0
  0
SPLINE
  5
1d2
100
AcDbEntity
  8
Holes
 62
1
100
AcDbSpline
 70
8
 71
3
 72
8
 73
4
 74
0
 40
0
 40
0
 40
0
 40
0
 40
1
 40
1
 40
1
 40
1
 10
145.275563
 20
125.294105
 30
0.0
 10
143.960001
 20
124.534564
 30
0.0
 10
142.339161
 20
124.534564
 30
0.0
 10
141.023598
 20
125.294105
 30
0.0
  0
SPLINE
  5
1d3
100
AcDbEntity
  8
Holes
 62
1
100
AcDbSpline
 70
8
 71
3
 72
8
 73
4
 74
0
 40
0
 40
0
 40
0
 40
0
 40
1
 40
1
 40
1
 40
1
 10
141.023598
 20
125.294105
 30
0.0
 10
139.708036
 20
126.053645
 30
0.0
 10
138.897616
 20
127.457333
 30
0.0
 10
138.897616
 20
128.976414
 30
0.0
  0
SPLINE
  5
1d4
100
AcDbEntity
  8
Holes
 62
1
100
AcDbSpline
 70
8
 71
3
 72
8
 73
4
 74
0
 40
0
 40
0
 40
0
 40
0
 40
1
 40
1
 40
1
 40
1
 10
138.897616
 20
128.976414
 30
0.0
 10
138.897616
 20
130.495495
 30
0.0
 10
139.708036
 20
131.899183
 30
0.0
 10
141.023598
 20
132.658724
 30
0.0
  0
SPLINE
  5
1d5
100
AcDbEntity
  8
Holes
 62
1
100
AcDbSpline
 70
8
 71
3
 72
8
 73
4
 74
0
 40
0
 40
0
 40
0
 40
0
 40
1
 40
1
 40
1
 40
1
 10
141.023598
 20
132.658724
 30
0.0
 10
142.339161
 20
133.418264
 30
0.0
 10
143.960001
 20
133.418264
 30
0.0
 10
145.275563
 20
132.658724
 30
0.0
  0
SPLINE
  5
1d6
100
AcDbEntity
  8
Holes
 62
1
100
AcDbSpline
 70
8
 71
3
 72
8
 73
4
 74
0
 40
0
 40
0
 40
0
 40
0
 40
1
 40
1
 40
1
 40
1
 10
145.275563
 20
132.658724
 30
0.0
 10
146.591125
 20
131.899183
 30
0.0
 10
147.401545
 20
130.495495
 30
0.0
 10
147.401545
 20
128.976414
 30
0.0
  0
LWPOLYLINE
  5
1d7
100
AcDbEntity
  8
Holes
 62
1
100
AcDbPolyline
 90
1
 70
1
 10
240.661397
 20
35.433101
 30
0.0
  0
SPLINE
  5
1d8
100
AcDbEntity
  8
Holes
 62
1
100
AcDbSpline
 70
8
 71
3
 72
8
 73
4
 74
0
 40
0
 40
0
 40
0
 40
0
 40
1
 40
1
 40
1
 40
1
 10
240.944893
 20
128.976414
 30
0.0
 10
240.944893
 20
127.457333
 30
0.0
 10
240.134473
 20
126.053645
 30
0.0
 10
238.818910
 20
125.294105
 30
0.0
  0
SPLINE
  5
1d9
100
AcDbEntity
  8
Holes
 62
1
100
AcDbSpline
 70
8
 71
3
 72
8
 73
4
 74
0
 40
0
 40
0
 40
0
 40
0
 40
1
 40
1
 40
1
 40
1
 10
238.818910
 20
125.294105
 30
0.0
 10
237.503348
 20
124.534564
 30
0.0
 10
235.882508
 20
124.534564
 30
0.0
 10
234.566945
 20
125.294105
 30
0.0
  0
SPLINE
  5
1da
100
AcDbEntity
  8
Holes
 62
1
100
AcDbSpline
 70
8
 71
3
 72
8
 73
4
 74
0
 40
0
 40
0
 40
0
 40
0
 40
1
 40
1
 40
1
 40
1
 10
234.566945
 20
125.294105
 30
0.0
 10
233.251383
 20
126.053645
 30
0.0
 10
232.440963
 20
127.457333
 30
0.0
 10
232.440963
 20
128.976414
 30
0.0
  0
SPLINE
  5
1db
100
AcDbEntity
  8
Holes
 62
1
100
AcDbSpline
 70
8
 71
3
 72
8
 73
4
 74
0
 40
0
 40
0
 40
0
 40
0
 40
1
 40
1
 40
1
 40
1
 10
232.440963
 20
128.976414
 30
0.0
 10
232.440963
 20
131.324709
 30
0.0
 10
234.344633
 20
133.228378
 30
0.0
 10
236.692928
 20
133.228378
 30
0.0
  0
SPLINE
  5
1dc
100
AcDbEntity
  8
Holes
 62
1
100
AcDbSpline
 70
8
 71
3
 72
8
 73
4
 74
0
 40
0
 40
0
 40
0
 40
0
 40
1
 40
1
 40
1
 40
1
 10
236.692928
 20
133.228378
 30
0.0
 10
239.041223
 20
133.228378
 30
0.0
 10
240.944892
 20
131.324709
 30
0.0
 10
240.944893
 20
128.976414
 30
0.0
  0
LWPOLYLINE
  5
1dd
100
AcDbEntity
  8
Holes
 62
1
100
AcDbPolyline
 90
1
 70
1
 10
147.401545
 20
128.976414
 30
0.0
  0
SPLINE
  5
1de
100
AcDbEntity
  8
Holes
 62
1
100
AcDbSpline
 70
8
 71
3
 72
8
 73
4
 74
0
 40
0
 40
0
 40
0
 40
0
 40
1
 40
1
 40
1
 40
1
 10
22.677162
 20
35.433269
 30
0.0
 10
22.677162
 20
33.914188
 30
0.0
 10
21.866742
 20
32.510499
 30
0.0
 10
20.551180
 20
31.750959
 30
0.0
  0
SPLINE
  5
1df
100
AcDbEntity
  8
Holes
 62
1
100
AcDbSpline
 70
8
 71
3
 72
8
 73
4
 74
0
 40
0
 40
0
 40
0
 40
0
 40
1
 40
1
 40
1
 40
1
 10
20.551180
 20
31.750959
 30
0.0
 10
19.235617
 20
30.991419
 30
0.0
 10
17.614777
 20
30.991419
 30
0.0
 10
16.299215
 20
31.750959
 30
0.0
  0
SPLINE
  5
1e0
100
AcDbEntity
  8
Holes
 62
1
100
AcDbSpline
 70
8
 71
3
 72
8
 73
4
 74
0
 40
0
 40
0
 40
0
 40
0
 40
1
 40
1
 40
1
 40
1
 10
16.299215
 20
31.750959
 30
0.0
 10
14.983652
 20
32.510499
 30
0.0
 10
14.173233
 20
33.914188
 30
0.0
 10
14.173233
 20
35.433269
 30
0.0
  0
SPLINE
  5
1e1
100
AcDbEntity
  8
Holes
 62
1
100
AcDbSpline
 70
8
 71
3
 72
8
 73
4
 74
0
 40
0
 40
0
 40
0
 40
0
 40
1
 40
1
 40
1
 40
1
 10
14.173233
 20
35.433269
 30
0.0
 10
14.173233
 20
37.781564
 30
0.0
 10
16.076902
 20
39.685233
 30
0.0
 10
18.425197
 20
39.685233
 30
0.0
  0
SPLINE
  5
1e2
100
AcDbEntity
  8
Holes
 62
1
100
AcDbSpline
 70
8
 71
3
 72
8
 73
4
 74
0
 40
0
 40
0
 40
0
 40
0
 40
1
 40
1
 40
1
 40
1
 10
18.425197
 20
39.685233
 30
0.0
 10
20.773492
 20
39.685233
 30
0.0
 10
22.677162
 20
37.781564
 30
0.0
 10
22.677162
 20
35.433269
 30
0.0
  0
LWPOLYLINE
  5
1e3
100
AcDbEntity
  8
Holes
 62
1
100
AcDbPolyline
 90
1
 70
1
 10
240.944893
 20
128.976414
 30
0.0
  0
SPLINE
  5
1e4
100
AcDbEntity
  8
Holes
 62
1
100
AcDbSpline
 70
8
 71
3
 72
8
 73
4
 74
0
 40
0
 40
0
 40
0
 40
0
 40
1
 40
1
 40
1
 40
1
 10
116.220472
 20
35.433173
 30
0.0
 10
116.220472
 20
33.914092
 30
0.0
 10
115.410052
 20
32.510403
 30
0.0
 10
114.094490
 20
31.750863
 30
0.0
  0
SPLINE
  5
1e5
100
AcDbEntity
  8
Holes
 62
1
100
AcDbSpline
 70
8
 71
3
 72
8
 73
4
 74
0
 40
0
 40
0
 40
0
 40
0
 40
1
 40
1
 40
1
 40
1
 10
114.094490
 20
31.750863
 30
0.0
 10
112.778927
 20
30.991323
 30
0.0
 10
111.158088
 20
30.991323
 30
0.0
 10
109.842525
 20
31.750863
 30
0.0
  0
SPLINE
  5
1e6
100
AcDbEntity
  8
Holes
 62
1
100
AcDbSpline
 70
8
 71
3
 72
8
 73
4
 74
0
 40
0
 40
0
 40
0
 40
0
 40
1
 40
1
 40
1
 40
1
 10
109.842525
 20
31.750863
 30
0.0
 10
108.526963
 20
32.510403
 30
0.0
 10
107.716543
 20
33.914092
 30
0.0
 10
107.716543
 20
35.433173
 30
0.0
  0
SPLINE
  5
1e7
100
AcDbEntity
  8
Holes
 62
1
100
AcDbSpline
 70
8
 71
3
 72
8
 73
4
 74
0
 40
0
 40
0
 40
0
 40
0
 40
1
 40
1
 40
1
 40
1
 10
107.716543
 20
35.433173
 30
0.0
 10
107.716543
 20
36.952253
 30
0.0
 10
108.526963
 20
38.355942
 30
0.0
 10
109.842525
 20
39.115482
 30
0.0
  0
SPLINE
  5
1e8
100
AcDbEntity
  8
Holes
 62
1
100
AcDbSpline
 70
8
 71
3
 72
8
 73
4
 74
0
 40
0
 40
0
 40
0
 40
0
 40
1
 40
1
 40
1
 40
1
 10
109.842525
 20
39.115482
 30
0.0
 10
111.158088
 20
39.875022
 30
0.0
 10
112.778927
 20
39.875022
 30
0.0
 10
114.094490
 20
39.115482
 30
0.0
  0
SPLINE
  5
1e9
100
AcDbEntity
  8
Holes
 62
1
100
AcDbSpline
 70
8
 71
3
 72
8
 73
4
 74
0
 40
0
 40
0
 40
0
 40
0
 40
1
 40
1
 40
1
 40
1
 10
114.094490
 20
39.115482
 30
0.0
 10
115.410052
 20
38.355942
 30
0.0
 10
116.220472
 20
36.952253
 30
0.0
 10
116.220472
 20
35.433173
 30
0.0
  0
LWPOLYLINE
  5
1ea
100
AcDbEntity
  8
Holes
 62
1
100
AcDbPolyline
 90
1
 70
1
 10
22.677162
 20
35.433269
 30
0.0
  0
SPLINE
  5
1eb
100
AcDbEntity
  8
Holes
 62
1
100
AcDbSpline
 70
8
 71
3
 72
8
 73
4
 74
0
 40
0
 40
0
 40
0
 40
0
 40
1
 40
1
 40
1
 40
1
 10
22.677162
 20
128.976485
 30
0.0
 10
22.677162
 20
127.457405
 30
0.0
 10
21.866742
 20
126.053716
 30
0.0
 10
20.551180
 20
125.294176
 30
0.0
  0
SPLINE
  5
1ec
100
AcDbEntity
  8
Holes
 62
1
100
AcDbSpline
 70
8
 71
3
 72
8
 73
4
 74
0
 40
0
 40
0
 40
0
 40
0
 40
1
 40
1
 40
1
 40
1
 10
20.551180
 20
125.294176
 30
0.0
 10
19.235617
 20
124.534636
 30
0.0
 10
17.614777
 20
124.534636
 30
0.0
 10
16.299215
 20
125.294176
 30
0.0
  0
SPLINE
  5
1ed
100
AcDbEntity
  8
Holes
 62
1
100
AcDbSpline
 70
8
 71
3
 72
8
 73
4
 74
0
 40
0
 40
0
 40
0
 40
0
 40
1
 40
1
 40
1
 40
1
 10
16.299215
 20
125.294176
 30
0.0
 10
14.983652
 20
126.053716
 30
0.0
 10
14.173233
 20
127.457405
 30
0.0
 10
14.173233
 20
128.976485
 30
0.0
  0
SPLINE
  5
1ee
100
AcDbEntity
  8
Holes
 62
1
100
AcDbSpline
 70
8
 71
3
 72
8
 73
4
 74
0
 40
0
 40
0
 40
0
 40
0
 40
1
 40
1
 40
1
 40
1
 10
14.173233
 20
128.976485
 30
0.0
 10
14.173233
 20
131.324781
 30
0.0
 10
16.076902
 20
133.228450
 30
0.0
 10
18.425197
 20
133.228450
 30
0.0
  0
SPLINE
  5
1ef
100
AcDbEntity
  8
Holes
 62
1
100
AcDbSpline
 70
8
 71
3
 72
8
 73
4
 74
0
 40
0
 40
0
 40
0
 40
0
 40
1
 40
1
 40
1
 40
1
 10
18.425197
 20
133.228450
 30
0.0
 10
20.773492
 20
133.228450
 30
0.0
 10
22.677162
 20
131.324781
 30
0.0
 10
22.677162
 20
128.976485
 30
0.0
  0
LWPOLYLINE
  5
1f0
100
AcDbEntity
  8
Holes
 62
1
100
AcDbPolyline
 90
1
 70
1
 10
116.220472
 20
35.433173
 30
0.0
  0
SPLINE
  5
1f1
100
AcDbEntity
  8
Holes
 62
1
100
AcDbSpline
 70
8
 71
3
 72
8
 73
4
 74
0
 40
0
 40
0
 40
0
 40
0
 40
1
 40
1
 40
1
 40
1
 10
116.220520
 20
128.976485
 30
0.0
 10
116.220520
 20
127.457405
 30
0.0
 10
115.410100
 20
126.053716
 30
0.0
 10
114.094538
 20
125.294176
 30
0.0
  0
SPLINE
  5
1f2
100
AcDbEntity
  8
Holes
 62
1
100
AcDbSpline
 70
8
 71
3
 72
8
 73
4
 74
0
 40
0
 40
0
 40
0
 40
0
 40
1
 40
1
 40
1
 40
1
 10
114.094538
 20
125.294176
 30
0.0
 10
112.778975
 20
124.534636
 30
0.0
 10
111.158136
 20
124.534636
 30
0.0
 10
109.842573
 20
125.294176
 30
0.0
  0
SPLINE
  5
1f3
100
AcDbEntity
  8
Holes
 62
1
100
AcDbSpline
 70
8
 71
3
 72
8
 73
4
 74
0
 40
0
 40
0
 40
0
 40
0
 40
1
 40
1
 40
1
 40
1
 10
109.842573
 20
125.294176
 30
0.0
 10
108.527011
 20
126.053716
 30
0.0
 10
107.716591
 20
127.457405
 30
0.0
 10
107.716591
 20
128.976485
 30
0.0
  0
SPLINE
  5
1f4
100
AcDbEntity
  8
Holes
 62
1
100
AcDbSpline
 70
8
 71
3
 72
8
 73
4
 74
0
 40
0
 40
0
 40
0
 40
0
 40
1
 40
1
 40
1
 40
1
 10
107.716591
 20
128.976485
 30
0.0
 10
107.716591
 20
130.495566
 30
0.0
 10
108.527011
 20
131.899254
 30
0.0
 10
109.842573
 20
132.658795
 30
0.0
  0
SPLINE
  5
1f5
100
AcDbEntity
  8
Holes
 62
1
100
AcDbSpline
 70
8
 71
3
 72
8
 73
4
 74
0
 40
0
 40
0
 40
0
 40
0
 40
1
 40
1
 40
1
 40
1
 10
109.842573
 20
132.658795
 30
0.0
 10
111.158136
 20
133.418335
 30
0.0
 10
112.778975
 20
133.418335
 30
0.0
 10
114.094538
 20
132.658795
 30
0.0
  0
SPLINE
  5
1f6
100
AcDbEntity
  8
Holes
 62
1
100
AcDbSpline
 70
8
 71
3
 72
8
 73
4
 74
0
 40
0
 40
0
 40
0
 40
0
 40
1
 40
1
 40
1
 40
1
 10
114.094538
 20
132.658795
 30
0.0
 10
115.410100
 20
131.899254
 30
0.0
 10
116.220520
 20
130.495566
 30
0.0
 10
116.220520
 20
128.976485
 30
0.0
  0
LWPOLYLINE
  5
1f7
100
AcDbEntity
  8
Holes
 62
1
100
AcDbPolyline
 90
1
 70
1
 10
22.677162
 20
128.976485
 30
0.0
  0
SPLINE
  5
1f8
100
AcDbEntity
  8
Holes
 62
7
100
AcDbSpline
 70
8
 71
3
 72
8
 73
4
 74
0
 40
0
 40
0
 40
0
 40
0
 40
1
 40
1
 40
1
 40
1
 10
405.354339
 20
173.480331
 30
0.0
 10
405.354339
 20
172.467609
 30
0.0
 10
404.814059
 20
171.531816
 30
0.0
 10
403.937016
 20
171.025456
 30
0.0
  0
SPLINE
  5
1f9
100
AcDbEntity
  8
Holes
 62
7
100
AcDbSpline
 70
8
 71
3
 72
8
 73
4
 74
0
 40
0
 40
0
 40
0
 40
0
 40
1
 40
1
 40
1
 40
1
 10
403.937016
 20
171.025456
 30
0.0
 10
403.059974
 20
170.519095
 30
0.0
 10
401.979413
 20
170.519095
 30
0.0
 10
401.102371
 20
171.025456
 30
0.0
  0
SPLINE
  5
1fa
100
AcDbEntity
  8
Holes
 62
7
100
AcDbSpline
 70
8
 71
3
 72
8
 73
4
 74
0
 40
0
 40
0
 40
0
 40
0
 40
1
 40
1
 40
1
 40
1
 10
401.102371
 20
171.025456
 30
0.0
 10
400.225328
 20
171.531816
 30
0.0
 10
399.685048
 20
172.467609
 30
0.0
 10
399.685048
 20
173.480331
 30
0.0
  0
SPLINE
  5
1fb
100
AcDbEntity
  8
Holes
 62
7
100
AcDbSpline
 70
8
 71
3
 72
8
 73
4
 74
0
 40
0
 40
0
 40
0
 40
0
 40
1
 40
1
 40
1
 40
1
 10
399.685048
 20
173.480331
 30
0.0
 10
399.685048
 20
174.493052
 30
0.0
 10
400.225328
 20
175.428845
 30
0.0
 10
401.102371
 20
175.935206
 30
0.0
  0
SPLINE
  5
1fc
100
AcDbEntity
  8
Holes
 62
7
100
AcDbSpline
 70
8
 71
3
 72
8
 73
4
 74
0
 40
0
 40
0
 40
0
 40
0
 40
1
 40
1
 40
1
 40
1
 10
401.102371
 20
175.935206
 30
0.0
 10
401.979413
 20
176.441567
 30
0.0
 10
403.059974
 20
176.441567
 30
0.0
 10
403.937016
 20
175.935206
 30
0.0
  0
SPLINE
  5
1fd
100
AcDbEntity
  8
Holes
 62
7
100
AcDbSpline
 70
8
 71
3
 72
8
 73
4
 74
0
 40
0
 40
0
 40
0
 40
0
 40
1
 40
1
 40
1
 40
1
 10
403.937016
 20
175.935206
 30
0.0
 10
404.814059
 20
175.428845
 30
0.0
 10
405.354339
 20
174.493052
 30
0.0
 10
405.354339
 20
173.480331
 30
0.0
  0
LWPOLYLINE
  5
1fe
100
AcDbEntity
  8
Holes
 62
1
100
AcDbPolyline
 90
1
 70
1
 10
116.220520
 20
128.976485
 30
0.0
  0
SPLINE
  5
1ff
100
AcDbEntity
  8
Text
 62
7
100
AcDbSpline
 70
8
 71
3
 72
8
 73
4
 74
0
 40
0
 40
0
 40
0
 40
0
 40
1
 40
1
 40
1
 40
1
 10
445.832495
 20
178.960504
 30
0.0
 10
445.832495
 20
177.016312
 30
0.0
 10
446.551007
 20
175.305456
 30
0.0
 10
447.890535
 20
173.983352
 30
0.0
  0
SPLINE
  5
200
100
AcDbEntity
  8
Text
 62
7
100
AcDbSpline
 70
8
 71
3
 72
8
 73
4
 74
0
 40
0
 40
0
 40
0
 40
0
 40
1
 40
1
 40
1
 40
1
 10
447.890535
 20
173.983352
 30
0.0
 10
449.268967
 20
172.622280
 30
0.0
 10
451.055295
 20
171.883520
 30
0.0
 10
452.918999
 20
171.883520
 30
0.0
  0
SPLINE
  5
201
100
AcDbEntity
  8
Text
 62
7
100
AcDbSpline
 70
8
 71
3
 72
8
 73
4
 74
0
 40
0
 40
0
 40
0
 40
0
 40
1
 40
1
 40
1
 40
1
 10
452.918999
 20
171.883520
 30
0.0
 10
454.802383
 20
171.883520
 30
0.0
 10
456.549799
 20
172.602792
 30
0.0
 10
457.908783
 20
173.963864
 30
0.0
  0
SPLINE
  5
202
100
AcDbEntity
  8
Text
 62
7
100
AcDbSpline
 70
8
 71
3
 72
8
 73
4
 74
0
 40
0
 40
0
 40
0
 40
0
 40
1
 40
1
 40
1
 40
1
 10
457.908783
 20
173.963864
 30
0.0
 10
459.267983
 20
175.324936
 30
0.0
 10
460.005727
 20
177.094016
 30
0.0
 10
460.005727
 20
178.960504
 30
0.0
  0
SPLINE
  5
203
100
AcDbEntity
  8
Text
 62
7
100
AcDbSpline
 70
8
 71
3
 72
8
 73
4
 74
0
 40
0
 40
0
 40
0
 40
0
 40
1
 40
1
 40
1
 40
1
 10
460.005727
 20
178.960504
 30
0.0
 10
460.005727
 20
180.826768
 30
0.0
 10
459.267983
 20
182.635040
 30
0.0
 10
457.889551
 20
184.034848
 30
0.0
  0
SPLINE
  5
204
100
AcDbEntity
  8
Text
 62
7
100
AcDbSpline
 70
8
 71
3
 72
8
 73
4
 74
0
 40
0
 40
0
 40
0
 40
0
 40
1
 40
1
 40
1
 40
1
 10
457.889551
 20
184.034848
 30
0.0
 10
456.588711
 20
185.356952
 30
0.0
 10
454.860751
 20
186.056752
 30
0.0
 10
452.918999
 20
186.056752
 30
0.0
  0
SPLINE
  5
205
100
AcDbEntity
  8
Text
 62
7
100
AcDbSpline
 70
8
 71
3
 72
8
 73
4
 74
0
 40
0
 40
0
 40
0
 40
0
 40
1
 40
1
 40
1
 40
1
 10
452.918999
 20
186.056752
 30
0.0
 10
450.996927
 20
186.056752
 30
0.0
 10
449.249735
 20
185.356952
 30
0.0
 10
447.909991
 20
184.015368
 30
0.0
  0
SPLINE
  5
206
100
AcDbEntity
  8
Text
 62
7
100
AcDbSpline
 70
8
 71
3
 72
8
 73
4
 74
0
 40
0
 40
0
 40
0
 40
0
 40
1
 40
1
 40
1
 40
1
 10
447.909991
 20
184.015368
 30
0.0
 10
446.550791
 20
182.654520
 30
0.0
 10
445.832495
 20
180.904696
 30
0.0
 10
445.832495
 20
178.960504
 30
0.0
  0
LWPOLYLINE
  5
207
100
AcDbEntity
  8
Holes
 62
7
100
AcDbPolyline
 90
1
 70
1
 10
405.354339
 20
173.480331
 30
0.0
  0
SPLINE
  5
208
100
AcDbEntity
  8
Text
 62
7
100
AcDbSpline
 70
8
 71
3
 72
8
 73
4
 74
0
 40
0
 40
0
 40
0
 40
0
 40
1
 40
1
 40
1
 40
1
 10
447.113879
 20
178.979784
 30
0.0
 10
447.113879
 20
180.574200
 30
0.0
 10
447.715655
 20
181.993488
 30
0.0
 10
448.822607
 20
183.101512
 30
0.0
  0
SPLINE
  5
209
100
AcDbEntity
  8
Text
 62
7
100
AcDbSpline
 70
8
 71
3
 72
8
 73
4
 74
0
 40
0
 40
0
 40
0
 40
0
 40
1
 40
1
 40
1
 40
1
 10
448.822607
 20
183.101512
 30
0.0
 10
449.909655
 20
184.190280
 30
0.0
 10
451.346455
 20
184.773408
 30
0.0
 10
452.918999
 20
184.773408
 30
0.0
  0
SPLINE
  5
20a
100
AcDbEntity
  8
Text
 62
7
100
AcDbSpline
 70
8
 71
3
 72
8
 73
4
 74
0
 40
0
 40
0
 40
0
 40
0
 40
1
 40
1
 40
1
 40
1
 10
452.918999
 20
184.773408
 30
0.0
 10
454.510999
 20
184.773408
 30
0.0
 10
455.909111
 20
184.209544
 30
0.0
 10
456.976927
 20
183.121000
 30
0.0
  0
SPLINE
  5
20b
100
AcDbEntity
  8
Text
 62
7
100
AcDbSpline
 70
8
 71
3
 72
8
 73
4
 74
0
 40
0
 40
0
 40
0
 40
0
 40
1
 40
1
 40
1
 40
1
 10
456.976927
 20
183.121000
 30
0.0
 10
458.102887
 20
181.973784
 30
0.0
 10
458.704895
 20
180.496272
 30
0.0
 10
458.704895
 20
178.979784
 30
0.0
  0
SPLINE
  5
20c
100
AcDbEntity
  8
Text
 62
7
100
AcDbSpline
 70
8
 71
3
 72
8
 73
4
 74
0
 40
0
 40
0
 40
0
 40
0
 40
1
 40
1
 40
1
 40
1
 10
458.704895
 20
178.979784
 30
0.0
 10
458.704895
 20
177.444048
 30
0.0
 10
458.103111
 20
176.005272
 30
0.0
 10
456.996159
 20
174.897024
 30
0.0
  0
SPLINE
  5
20d
100
AcDbEntity
  8
Text
 62
7
100
AcDbSpline
 70
8
 71
3
 72
8
 73
4
 74
0
 40
0
 40
0
 40
0
 40
0
 40
1
 40
1
 40
1
 40
1
 10
456.996159
 20
174.897024
 30
0.0
 10
455.889431
 20
173.788776
 30
0.0
 10
454.433399
 20
173.166688
 30
0.0
 10
452.918999
 20
173.166688
 30
0.0
  0
SPLINE
  5
20e
100
AcDbEntity
  8
Text
 62
7
100
AcDbSpline
 70
8
 71
3
 72
8
 73
4
 74
0
 40
0
 40
0
 40
0
 40
0
 40
1
 40
1
 40
1
 40
1
 10
452.918999
 20
173.166688
 30
0.0
 10
451.385367
 20
173.166688
 30
0.0
 10
449.929335
 20
173.788776
 30
0.0
 10
448.802927
 20
174.897024
 30
0.0
  0
SPLINE
  5
20f
100
AcDbEntity
  8
Text
 62
7
100
AcDbSpline
 70
8
 71
3
 72
8
 73
4
 74
0
 40
0
 40
0
 40
0
 40
0
 40
1
 40
1
 40
1
 40
1
 10
448.802927
 20
174.897024
 30
0.0
 10
447.696423
 20
175.985792
 30
0.0
 10
447.113879
 20
177.385600
 30
0.0
 10
447.113879
 20
178.979784
 30
0.0
  0
LWPOLYLINE
  5
210
100
AcDbEntity
  8
Text
 62
7
100
AcDbPolyline
 90
1
 70
1
 10
445.832495
 20
178.960504
 30
0.0
  0
SPLINE
  5
211
100
AcDbEntity
  8
Text
 62
7
100
AcDbSpline
 70
8
 71
3
 72
8
 73
4
 74
0
 40
0
 40
0
 40
0
 40
0
 40
1
 40
1
 40
1
 40
1
 10
451.741383
 20
178.888400
 30
0.0
 10
451.011463
 20
178.487560
 30
0.0
 10
450.720975
 20
177.803664
 30
0.0
 10
450.720975
 20
177.009816
 30
0.0
  0
SPLINE
  5
212
100
AcDbEntity
  8
Text
 62
7
100
AcDbSpline
 70
8
 71
3
 72
8
 73
4
 74
0
 40
0
 40
0
 40
0
 40
0
 40
1
 40
1
 40
1
 40
1
 10
450.720975
 20
177.009816
 30
0.0
 10
450.720975
 20
175.854320
 30
0.0
 10
451.537215
 20
174.934624
 30
0.0
 10
452.918775
 20
174.934624
 30
0.0
  0
SPLINE
  5
213
100
AcDbEntity
  8
Text
 62
7
100
AcDbSpline
 70
8
 71
3
 72
8
 73
4
 74
0
 40
0
 40
0
 40
0
 40
0
 40
1
 40
1
 40
1
 40
1
 10
452.918775
 20
174.934624
 30
0.0
 10
454.323823
 20
174.934624
 30
0.0
 10
455.116799
 20
175.799232
 30
0.0
 10
455.116799
 20
177.049008
 30
0.0
  0
SPLINE
  5
214
100
AcDbEntity
  8
Text
 62
7
100
AcDbSpline
 70
8
 71
3
 72
8
 73
4
 74
0
 40
0
 40
0
 40
0
 40
0
 40
1
 40
1
 40
1
 40
1
 10
455.116799
 20
177.049008
 30
0.0
 10
455.116799
 20
177.850912
 30
0.0
 10
454.677151
 20
178.534808
 30
0.0
 10
454.010079
 20
178.911912
 30
0.0
  0
LWPOLYLINE
  5
215
100
AcDbEntity
  8
Text
 62
7
100
AcDbPolyline
 90
1
 70
1
 10
447.113879
 20
178.979784
 30
0.0
  0
SPLINE
  5
216
100
AcDbEntity
  8
Text
 62
7
100
AcDbSpline
 70
8
 71
3
 72
8
 73
4
 74
0
 40
0
 40
0
 40
0
 40
0
 40
1
 40
1
 40
1
 40
1
 10
453.562599
 20
178.031624
 30
0.0
 10
454.033335
 20
177.835016
 30
0.0
 10
454.174887
 20
177.536288
 30
0.0
 10
454.174887
 20
177.159184
 30
0.0
  0
SPLINE
  5
217
100
AcDbEntity
  8
Text
 62
7
100
AcDbSpline
 70
8
 71
3
 72
8
 73
4
 74
0
 40
0
 40
0
 40
0
 40
0
 40
1
 40
1
 40
1
 40
1
 10
454.174887
 20
177.159184
 30
0.0
 10
454.174887
 20
176.506640
 30
0.0
 10
453.633263
 20
176.207912
 30
0.0
 10
452.918775
 20
176.207912
 30
0.0
  0
SPLINE
  5
218
100
AcDbEntity
  8
Text
 62
7
100
AcDbSpline
 70
8
 71
3
 72
8
 73
4
 74
0
 40
0
 40
0
 40
0
 40
0
 40
1
 40
1
 40
1
 40
1
 10
452.918775
 20
176.207912
 30
0.0
 10
452.204735
 20
176.207912
 30
0.0
 10
451.662887
 20
176.459608
 30
0.0
 10
451.662887
 20
177.159184
 30
0.0
  0
SPLINE
  5
219
100
AcDbEntity
  8
Text
 62
7
100
AcDbSpline
 70
8
 71
3
 72
8
 73
4
 74
0
 40
0
 40
0
 40
0
 40
0
 40
1
 40
1
 40
1
 40
1
 10
451.662887
 20
177.159184
 30
0.0
 10
451.662887
 20
177.347736
 30
0.0
 10
451.764863
 20
177.725064
 30
0.0
 10
452.236047
 20
177.945192
 30
0.0
  0
LWPOLYLINE
  5
21a
100
AcDbEntity
  8
Text
 62
7
100
AcDbPolyline
 90
2
 70
0
 10
454.010079
 20
178.911912
 30
0.0
 10
453.562599
 20
178.031624
 30
0.0
  0
SPLINE
  5
21b
100
AcDbEntity
  8
Text
 62
7
100
AcDbSpline
 70
8
 71
3
 72
8
 73
4
 74
0
 40
0
 40
0
 40
0
 40
0
 40
1
 40
1
 40
1
 40
1
 10
451.741383
 20
182.982137
 30
0.0
 10
451.011463
 20
182.581297
 30
0.0
 10
450.720975
 20
181.897401
 30
0.0
 10
450.720975
 20
181.103553
 30
0.0
  0
SPLINE
  5
21c
100
AcDbEntity
  8
Text
 62
7
100
AcDbSpline
 70
8
 71
3
 72
8
 73
4
 74
0
 40
0
 40
0
 40
0
 40
0
 40
1
 40
1
 40
1
 40
1
 10
450.720975
 20
181.103553
 30
0.0
 10
450.720975
 20
179.948057
 30
0.0
 10
451.537215
 20
179.028360
 30
0.0
 10
452.918775
 20
179.028360
 30
0.0
  0
SPLINE
  5
21d
100
AcDbEntity
  8
Text
 62
7
100
AcDbSpline
 70
8
 71
3
 72
8
 73
4
 74
0
 40
0
 40
0
 40
0
 40
0
 40
1
 40
1
 40
1
 40
1
 10
452.918775
 20
179.028360
 30
0.0
 10
454.323823
 20
179.028360
 30
0.0
 10
455.116799
 20
179.892969
 30
0.0
 10
455.116799
 20
181.142745
 30
0.0
  0
SPLINE
  5
21e
100
AcDbEntity
  8
Text
 62
7
100
AcDbSpline
 70
8
 71
3
 72
8
 73
4
 74
0
 40
0
 40
0
 40
0
 40
0
 40
1
 40
1
 40
1
 40
1
 10
455.116799
 20
181.142745
 30
0.0
 10
455.116799
 20
181.944649
 30
0.0
 10
454.677151
 20
182.628545
 30
0.0
 10
454.010079
 20
183.005649
 30
0.0
  0
LWPOLYLINE
  5
21f
100
AcDbEntity
  8
Text
 62
7
100
AcDbPolyline
 90
2
 70
0
 10
452.236047
 20
177.945192
 30
0.0
 10
451.741383
 20
178.888400
 30
0.0
  0
SPLINE
  5
220
100
AcDbEntity
  8
Text
 62
7
100
AcDbSpline
 70
8
 71
3
 72
8
 73
4
 74
0
 40
0
 40
0
 40
0
 40
0
 40
1
 40
1
 40
1
 40
1
 10
453.562599
 20
182.125361
 30
0.0
 10
454.033335
 20
181.928753
 30
0.0
 10
454.174887
 20
181.630025
 30
0.0
 10
454.174887
 20
181.252921
 30
0.0
  0
SPLINE
  5
221
100
AcDbEntity
  8
Text
 62
7
100
AcDbSpline
 70
8
 71
3
 72
8
 73
4
 74
0
 40
0
 40
0
 40
0
 40
0
 40
1
 40
1
 40
1
 40
1
 10
454.174887
 20
181.252921
 30
0.0
 10
454.174887
 20
180.600377
 30
0.0
 10
453.633263
 20
180.301649
 30
0.0
 10
452.918775
 20
180.301649
 30
0.0
  0
SPLINE
  5
222
100
AcDbEntity
  8
Text
 62
7
100
AcDbSpline
 70
8
 71
3
 72
8
 73
4
 74
0
 40
0
 40
0
 40
0
 40
0
 40
1
 40
1
 40
1
 40
1
 10
452.918775
 20
180.301649
 30
0.0
 10
452.204735
 20
180.301649
 30
0.0
 10
451.662887
 20
180.553345
 30
0.0
 10
451.662887
 20
181.252921
 30
0.0
  0
SPLINE
  5
223
100
AcDbEntity
  8
Text
 62
7
100
AcDbSpline
 70
8
 71
3
 72
8
 73
4
 74
0
 40
0
 40
0
 40
0
 40
0
 40
1
 40
1
 40
1
 40
1
 10
451.662887
 20
181.252921
 30
0.0
 10
451.662887
 20
181.441473
 30
0.0
 10
451.764863
 20
181.818801
 30
0.0
 10
452.236047
 20
182.038929
 30
0.0
  0
LWPOLYLINE
  5
224
100
AcDbEntity
  8
Text
 62
7
100
AcDbPolyline
 90
2
 70
0
 10
454.010079
 20
183.005649
 30
0.0
 10
453.562599
 20
182.125361
 30
0.0
  0
SPLINE
  5
225
100
AcDbEntity
  8
Screws
 62
5
100
AcDbSpline
 70
8
 71
3
 72
8
 73
4
 74
0
 40
0
 40
0
 40
0
 40
0
 40
1
 40
1
 40
1
 40
1
 10
26.078741
 20
35.433060
 30
0.0
 10
26.078741
 20
31.206124
 30
0.0
 10
22.652133
 20
27.779516
 30
0.0
 10
18.425197
 20
27.779516
 30
0.0
  0
SPLINE
  5
226
100
AcDbEntity
  8
Screws
 62
5
100
AcDbSpline
 70
8
 71
3
 72
8
 73
4
 74
0
 40
0
 40
0
 40
0
 40
0
 40
1
 40
1
 40
1
 40
1
 10
18.425197
 20
27.779516
 30
0.0
 10
14.198262
 20
27.779516
 30
0.0
 10
10.771654
 20
31.206124
 30
0.0
 10
10.771654
 20
35.433059
 30
0.0
  0
SPLINE
  5
227
100
AcDbEntity
  8
Screws
 62
5
100
AcDbSpline
 70
8
 71
3
 72
8
 73
4
 74
0
 40
0
 40
0
 40
0
 40
0
 40
1
 40
1
 40
1
 40
1
 10
10.771654
 20
35.433059
 30
0.0
 10
10.771654
 20
38.167407
 30
0.0
 10
12.230411
 20
40.694049
 30
0.0
 10
14.598426
 20
42.061222
 30
0.0
  0
SPLINE
  5
228
100
AcDbEntity
  8
Screws
 62
5
100
AcDbSpline
 70
8
 71
3
 72
8
 73
4
 74
0
 40
0
 40
0
 40
0
 40
0
 40
1
 40
1
 40
1
 40
1
 10
14.598426
 20
42.061222
 30
0.0
 10
16.966440
 20
43.428396
 30
0.0
 10
19.883954
 20
43.428396
 30
0.0
 10
22.251969
 20
42.061222
 30
0.0
  0
SPLINE
  5
229
100
AcDbEntity
  8
Screws
 62
5
100
AcDbSpline
 70
8
 71
3
 72
8
 73
4
 74
0
 40
0
 40
0
 40
0
 40
0
 40
1
 40
1
 40
1
 40
1
 10
22.251969
 20
42.061222
 30
0.0
 10
24.619984
 20
40.694049
 30
0.0
 10
26.078741
 20
38.167407
 30
0.0
 10
26.078741
 20
35.433059
 30
0.0
  0
LWPOLYLINE
  5
22a
100
AcDbEntity
  8
Text
 62
7
100
AcDbPolyline
 90
2
 70
0
 10
452.236047
 20
182.038929
 30
0.0
 10
451.741383
 20
182.982137
 30
0.0
  0
SPLINE
  5
22b
100
AcDbEntity
  8
Screws
 62
5
100
AcDbSpline
 70
8
 71
3
 72
8
 73
4
 74
0
 40
0
 40
0
 40
0
 40
0
 40
1
 40
1
 40
1
 40
1
 10
26.078741
 20
128.976375
 30
0.0
 10
26.078741
 20
124.749439
 30
0.0
 10
22.652133
 20
121.322831
 30
0.0
 10
18.425197
 20
121.322831
 30
0.0
  0
SPLINE
  5
22c
100
AcDbEntity
  8
Screws
 62
5
100
AcDbSpline
 70
8
 71
3
 72
8
 73
4
 74
0
 40
0
 40
0
 40
0
 40
0
 40
1
 40
1
 40
1
 40
1
 10
18.425197
 20
121.322831
 30
0.0
 10
14.198262
 20
121.322831
 30
0.0
 10
10.771654
 20
124.749439
 30
0.0
 10
10.771654
 20
128.976375
 30
0.0
  0
SPLINE
  5
22d
100
AcDbEntity
  8
Screws
 62
5
100
AcDbSpline
 70
8
 71
3
 72
8
 73
4
 74
0
 40
0
 40
0
 40
0
 40
0
 40
1
 40
1
 40
1
 40
1
 10
10.771654
 20
128.976375
 30
0.0
 10
10.771654
 20
131.710722
 30
0.0
 10
12.230411
 20
134.237364
 30
0.0
 10
14.598426
 20
135.604538
 30
0.0
  0
SPLINE
  5
22e
100
AcDbEntity
  8
Screws
 62
5
100
AcDbSpline
 70
8
 71
3
 72
8
 73
4
 74
0
 40
0
 40
0
 40
0
 40
0
 40
1
 40
1
 40
1
 40
1
 10
14.598426
 20
135.604538
 30
0.0
 10
16.966440
 20
136.971711
 30
0.0
 10
19.883954
 20
136.971711
 30
0.0
 10
22.251969
 20
135.604538
 30
0.0
  0
SPLINE
  5
22f
100
AcDbEntity
  8
Screws
 62
5
100
AcDbSpline
 70
8
 71
3
 72
8
 73
4
 74
0
 40
0
 40
0
 40
0
 40
0
 40
1
 40
1
 40
1
 40
1
 10
22.251969
 20
135.604538
 30
0.0
 10
24.619984
 20
134.237364
 30
0.0
 10
26.078741
 20
131.710722
 30
0.0
 10
26.078741
 20
128.976375
 30
0.0
  0
LWPOLYLINE
  5
230
100
AcDbEntity
  8
Screws
 62
5
100
AcDbPolyline
 90
1
 70
1
 10
26.078741
 20
35.433059
 30
0.0
  0
SPLINE
  5
231
100
AcDbEntity
  8
Screws
 62
5
100
AcDbSpline
 70
8
 71
3
 72
8
 73
4
 74
0
 40
0
 40
0
 40
0
 40
0
 40
1
 40
1
 40
1
 40
1
 10
119.622051
 20
128.976375
 30
0.0
 10
119.622051
 20
126.242027
 30
0.0
 10
118.163294
 20
123.715385
 30
0.0
 10
115.795279
 20
122.348212
 30
0.0
  0
SPLINE
  5
232
100
AcDbEntity
  8
Screws
 62
5
100
AcDbSpline
 70
8
 71
3
 72
8
 73
4
 74
0
 40
0
 40
0
 40
0
 40
0
 40
1
 40
1
 40
1
 40
1
 10
115.795279
 20
122.348212
 30
0.0
 10
113.427265
 20
120.981038
 30
0.0
 10
110.509750
 20
120.981038
 30
0.0
 10
108.141736
 20
122.348212
 30
0.0
  0
SPLINE
  5
233
100
AcDbEntity
  8
Screws
 62
5
100
AcDbSpline
 70
8
 71
3
 72
8
 73
4
 74
0
 40
0
 40
0
 40
0
 40
0
 40
1
 40
1
 40
1
 40
1
 10
108.141736
 20
122.348212
 30
0.0
 10
105.773721
 20
123.715385
 30
0.0
 10
104.314964
 20
126.242027
 30
0.0
 10
104.314964
 20
128.976375
 30
0.0
  0
SPLINE
  5
234
100
AcDbEntity
  8
Screws
 62
5
100
AcDbSpline
 70
8
 71
3
 72
8
 73
4
 74
0
 40
0
 40
0
 40
0
 40
0
 40
1
 40
1
 40
1
 40
1
 10
104.314964
 20
128.976375
 30
0.0
 10
104.314964
 20
133.203310
 30
0.0
 10
107.741572
 20
136.629918
 30
0.0
 10
111.968508
 20
136.629918
 30
0.0
  0
SPLINE
  5
235
100
AcDbEntity
  8
Screws
 62
5
100
AcDbSpline
 70
8
 71
3
 72
8
 73
4
 74
0
 40
0
 40
0
 40
0
 40
0
 40
1
 40
1
 40
1
 40
1
 10
111.968508
 20
136.629918
 30
0.0
 10
116.195443
 20
136.629918
 30
0.0
 10
119.622051
 20
133.203310
 30
0.0
 10
119.622051
 20
128.976375
 30
0.0
  0
LWPOLYLINE
  5
236
100
AcDbEntity
  8
Screws
 62
5
100
AcDbPolyline
 90
1
 70
1
 10
26.078741
 20
128.976375
 30
0.0
  0
SPLINE
  5
237
100
AcDbEntity
  8
Screws
 62
5
100
AcDbSpline
 70
8
 71
3
 72
8
 73
4
 74
0
 40
0
 40
0
 40
0
 40
0
 40
1
 40
1
 40
1
 40
1
 10
119.622051
 20
35.433059
 30
0.0
 10
119.622051
 20
32.698712
 30
0.0
 10
118.163294
 20
30.172070
 30
0.0
 10
115.795279
 20
28.804896
 30
0.0
  0
SPLINE
  5
238
100
AcDbEntity
  8
Screws
 62
5
100
AcDbSpline
 70
8
 71
3
 72
8
 73
4
 74
0
 40
0
 40
0
 40
0
 40
0
 40
1
 40
1
 40
1
 40
1
 10
115.795279
 20
28.804896
 30
0.0
 10
113.427265
 20
27.437723
 30
0.0
 10
110.509750
 20
27.437723
 30
0.0
 10
108.141736
 20
28.804896
 30
0.0
  0
SPLINE
  5
239
100
AcDbEntity
  8
Screws
 62
5
100
AcDbSpline
 70
8
 71
3
 72
8
 73
4
 74
0
 40
0
 40
0
 40
0
 40
0
 40
1
 40
1
 40
1
 40
1
 10
108.141736
 20
28.804896
 30
0.0
 10
105.773721
 20
30.172070
 30
0.0
 10
104.314964
 20
32.698712
 30
0.0
 10
104.314964
 20
35.433059
 30
0.0
  0
SPLINE
  5
23a
100
AcDbEntity
  8
Screws
 62
5
100
AcDbSpline
 70
8
 71
3
 72
8
 73
4
 74
0
 40
0
 40
0
 40
0
 40
0
 40
1
 40
1
 40
1
 40
1
 10
104.314964
 20
35.433059
 30
0.0
 10
104.314964
 20
39.659995
 30
0.0
 10
107.741572
 20
43.086602
 30
0.0
 10
111.968508
 20
43.086602
 30
0.0
  0
SPLINE
  5
23b
100
AcDbEntity
  8
Screws
 62
5
100
AcDbSpline
 70
8
 71
3
 72
8
 73
4
 74
0
 40
0
 40
0
 40
0
 40
0
 40
1
 40
1
 40
1
 40
1
 10
111.968508
 20
43.086602
 30
0.0
 10
116.195443
 20
43.086602
 30
0.0
 10
119.622051
 20
39.659995
 30
0.0
 10
119.622051
 20
35.433059
 30
0.0
  0
LWPOLYLINE
  5
23c
100
AcDbEntity
  8
Screws
 62
5
100
AcDbPolyline
 90
1
 70
1
 10
119.622051
 20
128.976375
 30
0.0
  0
LWPOLYLINE
  5
23d
100
AcDbEntity
  8
Screws
 62
5
100
AcDbPolyline
 90
1
 70
1
 10
119.622051
 20
35.433059
 30
0.0
  0
LWPOLYLINE
  5
23e
100
AcDbEntity
  8
Screws
 62
5
100
AcDbPolyline
 90
15
 70
1
 10
388.171885
 20
261.354257
 30
0.0
 10
388.171885
 20
261.340193
 30
0.0
 10
383.760949
 20
253.701130
 30
0.0
 10
388.171885
 20
246.060505
 30
0.0
 10
388.171885
 20
246.046441
 30
0.0
 10
388.179885
 20
246.046441
 30
0.0
 10
397.009573
 20
246.046441
 30
0.0
 10
397.009573
 20
246.051161
 30
0.0
 10
397.017573
 20
246.046441
 30
0.0
 10
401.436326
 20
253.701129
 30
0.0
 10
397.017573
 20
261.354254
 30
0.0
 10
397.009573
 20
261.349534
 30
0.0
 10
397.009573
 20
261.354254
 30
0.0
 10
388.179885
 20
261.354254
 30
0.0
 10
388.171885
 20
261.354254
 30
0.0
  0
LWPOLYLINE
  5
23f
100
AcDbEntity
  8
Screws
 62
5
100
AcDbPolyline
 90
15
 70
1
 10
481.714080
 20
261.354257
 30
0.0
 10
481.714080
 20
261.338633
 30
0.0
 10
477.304704
 20
253.701133
 30
0.0
 10
481.714080
 20
246.062070
 30
0.0
 10
481.714080
 20
246.046446
 30
0.0
 10
481.723440
 20
246.046446
 30
0.0
 10
490.553129
 20
246.046446
 30
0.0
 10
490.553129
 20
246.051166
 30
0.0
 10
490.561129
 20
246.046446
 30
0.0
 10
494.979881
 20
253.701134
 30
0.0
 10
490.561129
 20
261.354259
 30
0.0
 10
490.553129
 20
261.349539
 30
0.0
 10
490.553129
 20
261.354259
 30
0.0
 10
481.723440
 20
261.354259
 30
0.0
 10
481.714080
 20
261.354259
 30
0.0
  0
LWPOLYLINE
  5
240
100
AcDbEntity
  8
Screws
 62
5
100
AcDbPolyline
 90
17
 70
1
 10
388.179701
 20
167.812065
 30
0.0
 10
388.178101
 20
167.810465
 30
0.0
 10
388.171701
 20
167.810465
 30
0.0
 10
388.171701
 20
167.797985
 30
0.0
 10
383.760765
 20
160.157361
 30
0.0
 10
388.171701
 20
152.518297
 30
0.0
 10
388.171701
 20
152.504217
 30
0.0
 10
388.179701
 20
152.504217
 30
0.0
 10
397.009389
 20
152.504217
 30
0.0
 10
397.009389
 20
152.509017
 30
0.0
 10
397.017389
 20
152.504217
 30
0.0
 10
401.436142
 20
160.157337
 30
0.0
 10
397.017389
 20
167.812025
 30
0.0
 10
397.009389
 20
167.807225
 30
0.0
 10
397.009389
 20
167.810425
 30
0.0
 10
388.182829
 20
167.810425
 30
0.0
 10
388.179629
 20
167.812025
 30
0.0
  0
LWPOLYLINE
  5
241
100
AcDbEntity
  8
Screws
 62
5
100
AcDbPolyline
 90
17
 70
1
 10
481.723456
 20
167.812065
 30
0.0
 10
481.721856
 20
167.810465
 30
0.0
 10
481.713856
 20
167.810465
 30
0.0
 10
481.713856
 20
167.796385
 30
0.0
 10
477.304480
 20
160.157321
 30
0.0
 10
481.713856
 20
152.519825
 30
0.0
 10
481.713856
 20
152.504225
 30
0.0
 10
481.723216
 20
152.504225
 30
0.0
 10
490.552905
 20
152.504225
 30
0.0
 10
490.552905
 20
152.509025
 30
0.0
 10
490.560905
 20
152.504225
 30
0.0
 10
494.979657
 20
160.157345
 30
0.0
 10
490.560905
 20
167.812033
 30
0.0
 10
490.552905
 20
167.807233
 30
0.0
 10
490.552905
 20
167.810433
 30
0.0
 10
481.726336
 20
167.810433
 30
0.0
 10
481.723136
 20
167.812033
 30
0.0
  0
ENDSEC
  0
SECTION
  2
OBJECTS
  0
DICTIONARY
  5
C
330
0
100
AcDbDictionary
  3
ACAD_GROUP
350
D
  3
ACAD_MLINESTYLE
350
17
  0
DICTIONARY
  5
D
330
C
100
AcDbDictionary
  0
DICTIONARY
  5
1A
330
C
100
AcDbDictionary
  0
DICTIONARY
  5
17
330
C
100
AcDbDictionary
  3
STANDARD
350
18
  0
DICTIONARY
  5
19
330
C
100
AcDbDictionary
  0
ENDSEC
  0
EOF
